<?xml version="1.0" standalone="no"?>
<!DOCTYPE svg PUBLIC "-//W3C//DTD SVG 20010904//EN"
 "http://www.w3.org/TR/2001/REC-SVG-20010904/DTD/svg10.dtd">
<svg version="1.0" xmlns="http://www.w3.org/2000/svg"
 width="1280.000000pt" height="987.000000pt" viewBox="0 0 1280.000000 987.000000"
 preserveAspectRatio="xMidYMid meet">
<metadata>
Created by potrace 1.15, written by Peter Selinger 2001-2017
</metadata>
<g transform="translate(0.000000,987.000000) scale(0.100000,-0.100000)"
fill="#ffffff" stroke="none">
<path d="M3165 9860 c-366 -9 -746 -27 -900 -41 -60 -5 -177 -25 -260 -44
-137 -32 -191 -47 -385 -107 -66 -21 -452 -173 -680 -268 -203 -84 -460 -215
-535 -272 -139 -106 -180 -194 -180 -393 0 -197 13 -210 205 -203 66 2 123 7
126 11 16 15 -12 22 -124 27 -163 9 -182 22 -182 127 1 134 46 258 128 345 84
90 204 159 437 251 77 31 171 70 208 87 109 49 612 244 720 279 181 58 430
102 677 120 450 34 1764 47 2295 23 445 -20 633 -32 660 -42 14 -5 27 -20 31
-35 3 -14 14 -30 23 -36 18 -12 -52 -9 -494 15 -563 32 -1695 46 -2040 26
-415 -24 -726 -68 -892 -124 -267 -92 -401 -157 -543 -264 -41 -31 -68 -43
-118 -52 -93 -16 -201 -58 -355 -138 -75 -39 -153 -73 -174 -77 -79 -12 -146
-38 -180 -69 -56 -51 -35 -59 37 -15 66 41 106 56 117 46 3 -4 -24 -59 -59
-124 -117 -213 -153 -331 -145 -478 3 -49 9 -102 12 -116 6 -23 -1 -31 -59
-74 -189 -139 -188 -317 4 -409 51 -24 69 -39 83 -68 27 -55 10 -100 -50 -138
-68 -44 -113 -46 -237 -15 -120 30 -152 26 -199 -23 -34 -36 -47 -72 -47 -132
0 -40 5 -55 30 -83 17 -19 30 -41 30 -49 0 -9 -24 -33 -53 -54 -89 -66 -117
-153 -78 -240 36 -79 96 -93 208 -48 109 43 165 19 109 -46 -31 -37 -41 -84
-32 -152 8 -60 29 -103 55 -118 72 -38 216 36 196 101 -7 20 -10 18 -49 -25
-33 -35 -50 -46 -73 -46 -34 0 -70 30 -79 66 -12 49 1 131 29 173 32 49 33 62
6 87 -28 25 -105 23 -197 -5 -80 -25 -90 -23 -118 30 -36 71 -4 167 69 202 53
27 56 52 13 130 -60 107 -43 169 54 198 36 11 54 10 138 -9 54 -12 111 -22
127 -22 35 0 112 43 169 92 l40 35 -18 66 c-13 49 -26 74 -48 92 -16 14 -33
25 -38 25 -4 0 -31 18 -58 39 -65 52 -91 112 -73 172 15 49 66 107 132 150
l50 32 72 -34 72 -33 146 2 c146 3 146 3 178 -24 82 -69 83 -166 1 -221 -105
-71 -145 -105 -175 -147 -62 -87 -55 -166 20 -235 73 -67 107 -58 253 70 80
70 163 96 204 65 39 -29 49 -79 42 -204 l-7 -118 28 -22 c30 -24 74 -28 108
-11 36 19 67 51 67 71 0 26 -25 22 -44 -7 -31 -48 -95 -45 -121 6 -14 26 -14
40 -1 131 14 93 14 104 0 128 -21 32 -51 58 -90 75 -48 21 -90 4 -207 -83
-107 -81 -153 -106 -183 -100 -33 6 -58 55 -62 121 -4 57 -1 66 22 94 15 18
55 52 90 77 116 83 177 175 161 245 -3 15 -20 42 -38 59 -54 52 -104 65 -277
70 -91 2 -161 9 -168 15 -14 11 -14 16 7 116 12 61 -3 106 -53 155 -51 49 -64
80 -43 104 8 9 21 37 27 62 24 91 101 217 194 318 l55 58 168 1 c162 0 213 5
213 22 0 15 -81 22 -203 16 l-122 -6 110 57 c122 63 204 94 247 94 34 0 35
-10 7 -93 -38 -113 -5 -196 95 -243 44 -21 66 -24 165 -24 137 0 223 -14 276
-43 127 -71 60 -198 -166 -317 -126 -67 -192 -127 -209 -190 -24 -89 35 -230
96 -230 13 0 34 -5 48 -12 22 -9 36 -6 97 22 105 48 200 46 261 -8 16 -13 13
-19 -37 -76 -74 -82 -105 -145 -105 -213 0 -30 6 -66 14 -82 19 -36 82 -92
142 -126 94 -54 114 -73 114 -109 0 -18 -15 -62 -34 -97 -43 -82 -68 -156 -61
-180 9 -28 22 -15 30 30 3 21 27 73 52 115 78 132 66 185 -57 257 -124 72
-160 116 -160 196 0 51 38 130 88 182 68 71 90 45 91 -106 1 -34 5 -73 11 -88
12 -31 90 -70 123 -61 12 3 58 35 102 70 74 61 81 64 100 50 54 -40 109 -73
114 -69 7 8 -70 84 -102 101 -36 19 -60 11 -122 -41 -135 -114 -174 -96 -195
91 -19 157 -20 148 20 154 19 4 76 25 125 47 105 47 136 57 230 77 39 8 96 28
129 45 109 58 237 27 197 -48 -11 -20 -5 -51 9 -51 18 0 40 40 40 73 0 26 -7
41 -26 56 -65 51 -154 52 -255 4 -35 -17 -69 -29 -76 -26 -18 7 -16 43 2 63
17 19 23 133 11 189 l-8 33 68 -7 c38 -3 128 -7 199 -8 121 -1 133 1 174 23
38 22 49 37 91 125 26 55 59 110 72 122 60 56 207 99 451 130 108 14 217 17
597 17 407 0 512 -3 845 -27 687 -50 799 -66 877 -132 16 -14 39 -25 51 -25
12 0 28 -4 36 -9 21 -13 -69 -38 -208 -56 -62 -8 -116 -17 -120 -20 -10 -11
22 -23 78 -29 120 -14 162 -26 173 -51 6 -13 8 -35 4 -49 -7 -27 -35 -38 -131
-52 -27 -3 -66 -13 -85 -21 -31 -14 -33 -16 -15 -23 11 -5 55 -9 98 -9 85 -1
117 -19 117 -65 0 -22 -4 -24 -82 -30 -157 -13 -213 -46 -79 -46 87 0 131 -15
131 -44 0 -12 7 -32 16 -44 28 -41 13 -52 -73 -53 -82 0 -169 -11 -180 -22
-12 -13 6 -19 98 -33 94 -14 112 -22 123 -60 12 -39 -15 -51 -124 -59 -55 -4
-102 -11 -105 -16 -8 -12 63 -29 128 -29 l57 0 0 -44 c0 -26 6 -51 15 -59 13
-13 2 -16 -93 -21 -118 -7 -164 -16 -163 -31 0 -5 31 -14 69 -20 59 -8 74 -15
99 -42 l30 -32 -42 -7 c-24 -3 -65 -5 -92 -3 -163 9 -142 -15 32 -35 178 -21
237 -33 325 -66 118 -44 293 -119 304 -130 24 -24 -30 -6 -170 56 -177 79
-259 104 -335 104 -72 0 -86 -6 -105 -41 -14 -29 -15 -29 -104 -29 -50 0 -90
-4 -90 -9 0 -10 49 -21 95 -21 46 0 60 -20 40 -59 -18 -36 -38 -42 -127 -39
-81 4 -87 -10 -16 -34 68 -24 78 -34 78 -81 l0 -40 -82 5 c-46 3 -94 2 -108
-1 l-25 -7 25 -6 c14 -4 46 -10 72 -13 71 -11 83 -23 68 -69 l-12 -37 -81 1
c-141 2 -162 1 -151 -10 6 -6 39 -15 75 -21 71 -11 104 -28 114 -59 4 -14 15
-20 35 -20 16 0 32 -5 36 -12 5 -8 -27 -10 -132 -5 -81 4 -145 3 -154 -3 -20
-12 -3 -18 97 -34 45 -7 73 -15 65 -20 -6 -4 -12 -17 -12 -30 0 -40 -15 -45
-136 -39 -63 3 -114 3 -114 0 0 -15 49 -29 187 -52 146 -25 239 -49 258 -66
13 -12 12 -12 -93 16 -115 31 -152 32 -152 6 0 -35 -25 -44 -98 -37 -37 4 -77
9 -89 13 -16 3 -25 0 -29 -12 -9 -23 12 -35 66 -35 61 0 90 -21 90 -66 0 -27
5 -37 23 -44 34 -14 6 -12 -75 6 -95 20 -193 23 -210 6 -10 -10 -10 -15 2 -22
24 -15 143 -33 188 -28 23 2 42 3 42 1 0 -1 -14 -22 -31 -47 l-30 -45 -122 -3
c-106 -3 -119 -5 -99 -16 12 -7 67 -17 121 -21 102 -9 171 -30 101 -31 -19 0
-50 -9 -69 -21 -30 -18 -43 -19 -126 -13 -62 4 -94 3 -99 -4 -9 -15 20 -29 95
-46 75 -18 92 -31 65 -52 -14 -10 -49 -14 -119 -14 -54 0 -96 -4 -93 -8 3 -5
39 -19 81 -31 130 -39 111 -63 -45 -59 -63 2 -106 -1 -109 -7 -2 -5 31 -20 73
-33 83 -25 93 -39 58 -82 -18 -23 -20 -23 -113 -10 -52 7 -103 11 -114 8 -18
-4 -18 -5 5 -16 14 -6 52 -22 85 -34 36 -14 60 -29 60 -38 0 -12 -24 -16 -130
-20 -71 -3 -125 -8 -120 -12 6 -3 48 -16 95 -28 46 -12 93 -26 105 -32 19 -11
19 -12 -5 -18 -14 -4 -69 -4 -124 0 -100 7 -185 -1 -156 -14 8 -3 43 -14 78
-24 35 -9 64 -21 65 -27 1 -6 -32 -11 -78 -13 -44 -2 -84 -7 -89 -12 -5 -5 20
-22 60 -40 56 -26 65 -33 50 -39 -11 -4 -36 -4 -55 -1 -174 35 -171 35 -189
16 -16 -16 -16 -18 1 -30 9 -8 39 -16 65 -20 48 -6 92 -29 92 -47 0 -5 -6 -9
-12 -9 -7 0 -74 -29 -149 -65 -75 -36 -170 -74 -212 -85 -119 -30 -451 -97
-568 -114 -121 -18 -306 -21 -361 -6 -84 24 -303 206 -563 470 -255 258 -773
722 -1023 915 -86 67 -220 170 -297 231 -77 60 -177 135 -223 168 -91 63 -328
189 -346 183 -18 -6 112 -127 145 -134 16 -3 34 -14 39 -24 13 -23 13 -32 0
-24 -21 13 -8 -19 51 -117 64 -109 104 -158 127 -158 30 0 262 -159 262 -180
0 -14 -36 2 -83 38 -159 122 -192 139 -180 92 8 -31 61 -70 94 -70 30 0 30 0
24 -44 -7 -47 4 -75 88 -221 50 -88 74 -115 103 -115 13 0 26 -5 30 -12 5 -8
0 -9 -14 -6 -28 8 -28 -10 -1 -65 31 -61 58 -87 92 -87 49 0 352 -169 334
-186 -2 -3 -37 11 -77 30 -59 29 -75 33 -91 23 -10 -6 -22 -8 -26 -4 -4 5 -1
12 6 16 10 7 10 13 2 29 -15 28 -49 38 -68 20 -19 -20 -4 -57 39 -93 20 -17
28 -30 21 -32 -30 -11 7 -87 58 -119 24 -15 45 -39 58 -68 14 -34 30 -50 63
-67 40 -21 42 -23 19 -29 -25 -6 -42 -30 -22 -30 6 0 11 -11 11 -24 0 -28 45
-86 66 -86 8 0 19 -11 24 -24 5 -13 20 -35 34 -49 14 -14 35 -46 47 -71 11
-25 25 -46 29 -46 4 0 10 -14 14 -32 4 -20 25 -50 56 -80 39 -37 45 -48 31
-48 -11 0 -22 -4 -25 -9 -12 -18 26 -33 144 -57 109 -22 168 -40 158 -48 -1
-2 -55 7 -118 20 -124 26 -170 29 -170 15 0 -15 11 -19 94 -36 123 -26 132
-35 27 -28 l-94 6 5 -53 c4 -34 12 -58 22 -66 16 -11 16 -16 2 -58 -20 -59
-21 -105 -1 -112 19 -8 10 -24 -13 -24 -9 0 -24 -5 -32 -10 -13 -9 -12 -13 9
-30 13 -11 37 -20 55 -20 l31 -1 -32 -14 c-34 -15 -46 -40 -15 -31 9 2 33 8
52 11 19 4 58 20 85 35 28 15 70 31 95 35 25 4 81 16 125 26 90 21 114 24 99
10 -5 -6 -79 -30 -164 -55 -318 -94 -353 -105 -363 -115 -8 -8 4 -11 39 -11
l49 -1 -49 -17 c-54 -19 -72 -42 -34 -42 13 0 56 9 96 19 39 11 72 15 72 10 0
-11 -116 -46 -180 -55 -47 -6 -50 -8 -50 -35 0 -19 -7 -32 -22 -40 -26 -13
-38 -28 -38 -46 0 -17 26 -16 97 2 31 8 77 15 101 15 38 0 43 -2 32 -15 -8
-10 -31 -15 -71 -15 -60 0 -139 -24 -139 -42 0 -6 10 -8 23 -5 12 3 33 8 47
12 14 3 -13 -14 -60 -37 -79 -40 -85 -46 -90 -78 -4 -26 -12 -38 -33 -48 -31
-15 -61 -70 -47 -87 4 -5 10 -20 12 -33 l3 -23 73 36 c39 20 72 40 72 44 0 17
-14 19 -41 6 -44 -23 -57 -17 -24 10 49 41 135 46 135 8 0 -10 -6 -13 -16 -9
-10 4 -27 -5 -46 -23 -17 -16 -58 -44 -92 -62 -65 -34 -140 -88 -133 -96 3 -2
69 28 147 67 78 39 144 69 147 66 7 -7 -62 -48 -188 -111 -63 -31 -133 -69
-156 -83 -35 -22 -39 -28 -26 -37 13 -10 10 -19 -26 -65 -22 -30 -43 -67 -47
-83 -3 -16 -28 -54 -56 -84 -27 -30 -48 -62 -46 -71 5 -27 48 -26 110 4 32 15
61 24 65 21 9 -10 -62 -82 -101 -100 -17 -9 -43 -19 -58 -22 -34 -7 -36 -21
-6 -31 20 -6 19 -8 -18 -26 -51 -26 -104 -77 -104 -100 0 -25 27 -34 64 -20
28 10 26 7 -19 -33 -27 -25 -66 -52 -85 -61 -88 -41 -143 -144 -92 -173 15 -9
15 -12 -11 -39 -15 -15 -24 -32 -20 -35 10 -10 -119 -139 -199 -199 -61 -46
-86 -74 -74 -86 14 -13 422 237 666 409 202 141 320 235 320 254 0 24 -20 18
-74 -23 -115 -87 -209 -152 -220 -152 -6 0 2 11 17 25 15 14 27 32 27 40 0 23
30 47 45 35 9 -7 19 0 40 30 31 45 100 100 125 100 9 0 43 20 74 45 32 25 62
45 67 45 19 0 7 -17 -43 -61 -29 -26 -49 -51 -45 -55 26 -27 205 133 637 567
331 333 403 397 510 457 133 75 216 85 559 71 141 -6 274 -14 296 -19 59 -12
253 -89 395 -157 243 -116 485 -297 504 -376 7 -30 58 -67 92 -67 37 0 47 -23
23 -54 -20 -26 -20 -28 -4 -46 14 -16 31 -20 81 -20 53 0 67 -4 91 -25 l28
-24 -61 -1 c-44 0 -68 -5 -84 -18 -21 -17 -21 -19 -6 -35 10 -9 29 -20 44 -23
74 -15 94 -40 42 -50 -16 -4 -30 -11 -30 -16 0 -5 37 -26 82 -47 l81 -38 -45
-11 c-94 -24 -78 -62 36 -86 71 -15 108 -38 90 -56 -6 -6 -30 -16 -55 -23 -66
-19 -57 -38 34 -67 42 -14 92 -37 110 -51 28 -23 30 -28 18 -43 -11 -13 -27
-16 -69 -14 -36 2 -56 -1 -59 -9 -6 -18 52 -50 105 -58 60 -9 99 -29 107 -55
8 -26 -11 -50 -39 -50 -11 0 -28 -5 -36 -10 -13 -9 -13 -11 0 -20 8 -6 32 -15
52 -22 44 -13 74 -42 83 -80 l7 -28 -66 0 c-36 0 -66 -4 -66 -8 0 -5 25 -21
55 -37 65 -32 95 -66 95 -106 0 -48 7 -48 -350 -3 -425 54 -459 56 -1015 64
-523 7 -544 8 -678 33 -180 34 -700 109 -992 143 -281 33 -514 37 -617 11
-148 -37 -262 -109 -446 -281 -177 -166 -183 -168 -495 -191 -308 -23 -315
-24 -373 -87 -74 -78 -92 -162 -60 -277 30 -107 11 -193 -74 -341 -51 -89 -66
-131 -55 -150 9 -15 35 7 35 29 0 9 21 50 46 91 58 94 70 123 89 215 20 99 19
137 -5 168 -41 52 -17 173 47 239 56 57 99 67 348 77 310 13 343 26 535 206
63 59 142 127 176 151 131 94 277 143 422 144 147 0 769 -76 1312 -161 l325
-51 475 -8 c496 -9 468 -7 1040 -75 221 -26 272 -33 303 -42 27 -7 21 -42 -10
-54 -42 -16 -296 -4 -523 25 -304 39 -410 46 -780 56 -326 9 -462 18 -590 40
-220 36 -437 75 -565 100 -82 16 -188 34 -235 40 -121 14 -343 12 -422 -4
-149 -32 -416 -191 -369 -220 5 -3 39 15 77 40 87 60 209 117 309 145 62 17
107 22 195 22 135 -1 198 -9 500 -68 538 -105 755 -131 1210 -145 168 -5 375
-17 460 -25 304 -30 715 -87 738 -101 28 -18 30 -60 2 -69 -10 -3 -79 3 -152
14 -73 11 -207 27 -298 35 -91 9 -187 18 -215 21 -27 3 -210 10 -405 15 -195
6 -428 17 -517 25 -90 8 -254 19 -365 25 -112 5 -291 19 -398 30 -546 57 -887
49 -1430 -30 -261 -39 -707 -120 -746 -136 -56 -23 -132 -82 -149 -115 -35
-66 -5 -171 67 -241 84 -82 112 -96 262 -128 126 -27 141 -33 179 -66 26 -24
42 -33 45 -25 5 15 -17 61 -29 61 -5 0 -28 13 -51 30 -34 23 -64 33 -140 45
-152 24 -223 52 -282 114 -35 37 -46 103 -23 148 37 71 152 143 284 177 86 22
597 103 795 126 396 46 793 46 1282 0 116 -10 292 -24 391 -30 99 -6 252 -18
340 -26 88 -8 321 -19 518 -24 463 -12 660 -29 943 -81 173 -32 182 -52 26
-57 -73 -3 -160 6 -347 33 l-250 37 -435 3 c-511 3 -792 22 -1190 80 -253 37
-447 48 -700 42 -243 -6 -335 -20 -427 -62 -77 -35 -83 -33 -83 19 0 25 -4 48
-10 51 -10 6 -17 -17 -23 -88 -9 -92 -52 -116 -236 -127 -271 -16 -401 -80
-471 -234 -28 -61 -27 -81 5 -74 12 2 18 14 20 36 3 33 44 95 77 115 8 6 24 7
34 2 11 -4 39 -10 64 -11 88 -7 179 -26 191 -40 9 -11 9 -32 0 -89 -16 -109
-14 -155 9 -193 35 -57 73 -66 260 -67 142 0 170 -3 193 -18 36 -24 36 -67 0
-106 -16 -17 -71 -52 -123 -79 -113 -58 -144 -95 -116 -137 23 -36 36 -31 36
13 0 49 27 75 101 101 119 41 159 81 159 160 0 86 -78 125 -198 101 -208 -41
-315 25 -297 182 13 108 36 114 253 73 240 -45 415 -67 577 -71 271 -8 167 16
-290 66 -250 28 -455 68 -455 89 0 4 18 32 40 61 45 61 48 70 20 70 -11 0 -20
-5 -20 -11 0 -6 -16 -29 -35 -50 -19 -22 -35 -43 -35 -48 0 -21 -41 -20 -144
4 -152 36 -160 39 -159 50 3 35 237 75 435 75 l134 0 44 -45 c24 -25 58 -49
74 -55 17 -5 105 -21 196 -35 285 -44 319 -57 360 -145 22 -47 27 -51 50 -45
154 39 651 29 997 -20 198 -29 299 -33 270 -11 -10 8 -61 19 -115 25 -53 7
-146 21 -207 31 -60 10 -159 24 -219 29 -147 15 -540 14 -641 -1 l-81 -11 -49
53 c-28 29 -69 61 -92 72 -23 10 -124 32 -225 49 -188 31 -293 63 -293 89 0
12 20 17 90 22 50 4 144 15 210 24 80 12 180 18 300 19 262 0 751 -30 950 -59
237 -35 441 -46 795 -44 360 2 536 -18 897 -98 85 -19 146 -61 141 -98 -3 -24
-14 -25 -478 -45 -353 -16 -862 -50 -890 -60 -42 -16 345 -12 590 5 303 21
737 21 955 1 94 -9 312 -26 485 -37 173 -11 383 -27 465 -35 83 -8 254 -21
380 -30 127 -8 311 -22 410 -30 311 -25 550 -35 866 -35 342 0 482 9 744 46
299 42 391 67 689 186 82 32 153 57 158 56 6 -2 -18 -29 -53 -59 -291 -253
-746 -532 -1163 -714 -206 -89 -551 -216 -724 -265 -95 -28 -186 -57 -201 -65
-64 -33 -386 -75 -836 -109 -292 -23 -542 -36 -670 -36 -107 0 -286 -14 -349
-26 -54 -11 -6 -21 134 -29 74 -4 169 -13 210 -21 255 -49 1021 -43 1600 12
152 14 340 43 400 60 22 7 23 6 12 -9 -8 -9 -50 -28 -95 -43 -45 -15 -107 -38
-137 -52 -245 -108 -803 -257 -1240 -331 -96 -16 -292 -41 -435 -56 -143 -15
-320 -35 -393 -45 -82 -12 -158 -17 -200 -13 -111 9 -402 -41 -402 -69 0 -7
20 -9 63 -4 34 3 236 10 448 16 730 19 1260 73 1869 191 432 84 797 196 1302
398 137 55 470 218 576 282 35 21 66 39 69 39 2 0 90 55 194 122 419 269 639
483 903 882 216 325 345 555 381 679 11 38 39 87 89 154 95 128 189 277 311
494 194 346 290 479 453 626 154 140 205 196 258 288 81 141 121 199 191 276
36 41 97 116 135 166 38 51 86 113 107 137 82 95 89 181 27 313 l-35 73 -79 0
c-93 0 -181 -15 -237 -41 -52 -23 -127 -42 -154 -37 -22 3 -22 4 8 43 17 22
31 48 31 57 0 27 53 80 80 82 17 1 26 8 30 26 5 21 12 25 42 25 45 0 57 11 32
30 -16 13 -17 16 -4 25 8 6 34 8 58 5 34 -5 42 -3 42 9 0 9 -9 16 -20 16 -11
0 -20 6 -20 14 0 14 42 32 90 38 20 2 25 8 23 28 -1 23 2 25 32 22 44 -5 81
14 64 34 -9 11 -7 25 11 67 34 78 30 127 -19 224 -22 45 -43 101 -47 125 -4
24 -19 72 -35 108 -15 36 -37 108 -48 159 -20 90 -63 195 -158 386 -75 150
-148 251 -279 386 -149 155 -252 282 -366 455 -242 365 -564 647 -978 857 -85
44 -161 84 -169 90 -8 7 -56 64 -106 127 -98 122 -145 171 -145 151 0 -6 7
-26 16 -42 39 -77 -28 -45 -151 72 -96 91 -125 109 -125 77 0 -7 9 -22 21 -34
12 -12 18 -27 14 -33 -9 -16 -78 -14 -100 3 -11 8 -25 12 -32 9 -8 -3 -13 3
-13 16 0 11 -16 37 -36 58 -20 21 -55 67 -78 103 -38 60 -84 95 -102 77 -3 -3
8 -30 25 -60 40 -71 40 -87 -1 -87 -66 0 -102 18 -141 68 -45 59 -156 166
-164 158 -3 -3 4 -28 16 -55 25 -59 26 -74 6 -91 -27 -22 -127 38 -253 149
-98 88 -157 131 -177 131 -13 0 -1 -19 45 -70 28 -30 49 -61 48 -70 -10 -48
-119 -5 -315 126 -85 57 -159 104 -164 104 -19 0 -7 -22 46 -81 89 -99 62
-119 -72 -54 -39 19 -106 61 -150 92 -151 110 -255 173 -283 173 -29 0 -3 -34
58 -74 67 -45 160 -114 217 -162 l30 -25 -48 4 c-36 4 -110 35 -285 120 -281
136 -335 158 -569 236 -391 130 -874 229 -1388 285 -327 36 -541 48 -1390 77
-411 14 -1341 19 -1740 9z m2485 -70 c419 -26 740 -62 1070 -121 473 -85 665
-129 935 -214 99 -32 188 -60 198 -62 9 -3 17 -9 17 -13 0 -11 -61 4 -227 55
-79 25 -219 61 -311 80 -92 19 -201 43 -242 55 -104 28 -386 84 -581 114 -184
29 -333 44 -751 78 -159 12 -288 26 -288 30 0 10 -18 10 180 -2z m-102 -100
c54 -13 52 -23 -3 -15 -56 8 -65 12 -65 27 0 6 7 7 18 3 9 -4 32 -11 50 -15z
m-1068 -24 c118 -8 318 -22 444 -31 126 -9 297 -25 380 -35 83 -11 169 -20
191 -20 48 0 58 -6 76 -45 12 -26 20 -30 62 -33 26 -2 47 -7 47 -13 0 -21
-313 -8 -590 26 -236 29 -376 35 -1195 46 -1042 14 -1141 7 -1685 -110 -52
-12 -178 -32 -280 -47 -102 -14 -224 -34 -272 -45 -48 -10 -96 -19 -105 -19
-55 1 164 118 327 175 222 77 412 113 750 144 124 12 241 23 260 25 88 11
1386 -4 1590 -18z m1248 7 c2 -9 -8 -13 -35 -13 -36 1 -37 1 -18 16 22 17 46
15 53 -3z m257 -23 c4 -6 -13 -10 -44 -10 -27 0 -53 5 -56 10 -4 6 13 10 44
10 27 0 53 -4 56 -10z m-410 -20 c503 -43 1403 -194 1785 -300 141 -39 305
-92 314 -101 6 -5 22 -9 37 -9 25 0 95 -24 238 -83 30 -12 58 -30 62 -40 5 -9
13 -25 17 -34 5 -10 47 -39 94 -64 48 -25 124 -72 169 -105 97 -69 254 -215
275 -255 13 -26 12 -29 -5 -39 -26 -13 -87 -13 -114 1 -12 7 -68 57 -125 111
-128 122 -233 202 -346 259 -47 24 -86 46 -86 49 0 3 21 18 46 34 55 35 49 45
-46 74 -36 11 -107 37 -158 57 -224 86 -837 230 -1282 300 -52 8 -196 26 -320
40 -223 26 -593 77 -692 95 -113 22 -54 26 137 10z m585 0 c8 -5 12 -12 8 -15
-10 -10 -49 5 -43 16 8 11 16 11 35 -1z m198 -26 c37 -10 25 -25 -15 -18 -54
9 -76 23 -38 24 17 0 40 -3 53 -6z m-2903 -74 c39 -9 233 -18 955 -40 768 -24
1280 -85 1280 -152 0 -6 8 -20 18 -31 20 -23 29 -23 -388 13 -1019 90 -1513
107 -2027 70 -153 -11 -404 -27 -558 -35 -293 -17 -373 -26 -646 -75 -177 -32
-323 -66 -563 -131 -81 -22 -150 -38 -153 -35 -20 20 50 145 92 164 27 12 278
56 525 92 80 12 208 34 285 50 400 81 1048 142 1180 110z m2396 -115 c798 -75
1704 -272 2064 -451 157 -77 425 -300 425 -353 0 -30 -17 -26 -34 7 -21 41
-183 192 -257 240 -35 23 -75 50 -89 60 -106 81 -753 257 -1345 366 -269 50
-432 72 -748 101 -286 26 -383 43 -251 44 38 1 144 -6 235 -14z m607 -22 c-10
-2 -26 -2 -35 0 -10 3 -2 5 17 5 19 0 27 -2 18 -5z m-2118 -49 c620 -34 1631
-118 1920 -159 279 -40 729 -119 965 -172 379 -83 613 -194 794 -376 64 -66
72 -77 62 -95 -14 -27 -72 -62 -103 -62 -34 0 -98 44 -202 139 -50 44 -94 81
-99 81 -6 0 -33 14 -61 31 -28 18 -78 42 -111 54 -33 13 -60 27 -59 31 0 5 18
17 38 28 37 18 41 18 99 2 110 -31 190 -79 385 -231 34 -26 65 -46 68 -43 9
10 -107 128 -170 173 -165 116 -402 197 -811 274 -552 105 -678 125 -1080 171
-211 25 -225 25 -225 3 0 -25 30 -53 57 -53 15 0 23 -5 20 -12 -5 -17 -52 -15
-282 10 -341 37 -518 49 -939 62 -480 15 -916 -3 -1261 -51 -88 -12 -245 -23
-420 -29 -285 -9 -384 -22 -518 -66 -155 -50 -257 -141 -257 -228 0 -65 78
-156 184 -216 31 -18 56 -36 56 -40 0 -5 -9 -25 -21 -44 -38 -65 -37 -182 3
-238 26 -36 -33 -76 -68 -48 -7 7 -14 24 -14 39 0 72 -91 130 -132 84 -43 -49
-34 -103 24 -139 l42 -27 -23 -18 c-13 -10 -45 -25 -73 -34 -53 -15 -41 -18
-170 31 -62 23 -139 15 -222 -24 -37 -18 -77 -32 -88 -32 -32 0 -92 37 -110
68 -25 42 -22 79 8 140 31 62 81 107 188 169 43 25 99 64 123 86 120 110 117
235 -7 302 -53 29 -60 30 -226 35 -139 4 -175 8 -197 23 -38 24 -59 61 -55 94
3 28 5 29 208 81 517 133 682 161 1130 192 126 9 660 43 835 54 101 6 516 -4
795 -20z m1422 -36 c-15 -15 -27 14 -17 40 6 15 8 15 18 -6 7 -16 7 -26 -1
-34z m1222 46 c9 -3 16 -10 16 -15 0 -14 -26 -10 -40 6 -13 16 -3 20 24 9z
m1097 -65 c34 -17 59 -33 56 -35 -7 -8 -104 36 -118 52 -17 21 -5 17 62 -17z
m-253 -16 c32 -14 34 -17 16 -20 -12 -2 -48 8 -80 22 l-59 26 43 -6 c24 -3 60
-13 80 -22z m-1578 -33 c0 -5 -7 -10 -15 -10 -8 0 -15 5 -15 10 0 6 7 10 15
10 8 0 15 -4 15 -10z m2047 -56 c71 -40 80 -59 11 -24 -48 23 -98 59 -84 60 5
0 38 -16 73 -36z m-1703 10 c9 -3 16 -11 16 -16 0 -12 -70 -1 -84 13 -11 10
43 13 68 3z m-1673 -59 c1045 -78 1701 -161 2199 -276 367 -84 499 -147 646
-302 47 -50 84 -98 82 -106 -3 -18 -142 -91 -173 -91 -11 0 -40 21 -65 46 -77
79 -250 204 -358 258 l-53 27 26 21 c79 62 231 9 455 -162 51 -38 95 -68 98
-66 8 8 -56 79 -115 129 -161 133 -385 201 -1008 306 -389 66 -765 111 -816
98 -43 -11 -44 -35 -2 -59 l36 -22 -26 -7 c-15 -4 -118 1 -229 12 -487 45
-822 60 -1403 66 l-570 6 -140 -27 c-331 -64 -427 -112 -500 -249 -40 -74 -71
-104 -134 -128 -192 -73 -538 2 -629 135 -67 98 -13 225 118 273 102 38 232
53 545 63 303 10 384 16 575 45 160 23 350 32 746 34 300 1 418 -3 695 -24z
m3219 -10 c11 -13 8 -15 -18 -15 -31 0 -47 11 -35 24 11 11 40 6 53 -9z m281
-15 c28 -16 23 -32 -6 -18 -14 6 -25 15 -25 20 0 11 7 10 31 -2z m-24 -47 c43
-21 96 -57 118 -79 42 -44 83 -70 93 -60 3 4 -12 24 -33 46 -48 49 -38 51 25
5 54 -39 260 -251 260 -266 0 -6 -40 26 -89 71 -165 151 -176 144 -30 -19 56
-62 99 -114 97 -117 -3 -2 -49 -8 -104 -12 l-99 -9 -125 122 c-129 126 -191
179 -272 234 -53 35 -64 57 -22 41 51 -20 173 -112 305 -231 139 -125 169
-148 169 -129 0 18 -193 204 -260 252 -154 107 -185 128 -211 139 -40 16 -36
33 9 46 51 15 80 9 169 -34z m-513 18 c12 -19 -50 -46 -73 -32 -25 16 -4 41
33 41 19 0 37 -4 40 -9z m207 -8 c16 -10 29 -21 29 -25 0 -10 -56 18 -65 32
-9 15 3 12 36 -7z m565 1 c18 -9 64 -48 101 -87 64 -68 219 -260 258 -319 17
-27 17 -28 -1 -28 -29 0 -66 29 -121 95 -49 58 -259 267 -316 313 -15 12 -25
27 -22 32 9 15 63 12 101 -6z m-2243 -41 c-7 -2 -21 -2 -30 0 -10 3 -4 5 12 5
17 0 24 -2 18 -5z m2545 -27 c73 -37 139 -102 242 -238 l93 -123 -49 -3 -49
-4 -70 78 c-38 43 -116 126 -173 186 -57 59 -101 112 -97 118 10 17 53 11 103
-14z m-1253 -26 c-3 -5 -18 -10 -33 -10 -21 0 -24 2 -12 10 20 13 53 13 45 0z
m1543 -9 c66 -34 174 -168 228 -284 28 -61 30 -77 8 -77 -26 0 -68 35 -113 94
-23 30 -55 59 -71 65 -29 10 -200 166 -200 183 0 12 59 37 88 38 12 0 40 -9
60 -19z m-1363 -54 c111 -53 321 -223 386 -312 27 -36 28 -40 12 -47 -10 -3
-36 -7 -57 -7 -45 -1 -55 6 -201 134 -113 99 -182 148 -272 194 -66 33 -74 44
-45 60 35 21 105 12 177 -22z m1695 -83 c59 -27 100 -60 100 -80 0 -7 25 -41
55 -76 30 -34 55 -66 55 -71 0 -12 -99 4 -157 25 -54 20 -95 52 -52 41 16 -4
-2 18 -54 70 -89 88 -99 117 -39 117 20 0 62 -12 92 -26z m-3290 -14 c326 -41
665 -105 810 -152 186 -60 284 -119 408 -246 96 -97 103 -125 10 -36 -150 142
-299 217 -573 289 -224 59 -419 90 -884 140 -80 8 -150 20 -155 26 -15 16 173
6 384 -21z m2767 -83 c19 -26 33 -50 30 -53 -5 -6 -127 140 -127 152 0 13 59
-48 97 -99z m-2274 68 c-4 -15 -36 -12 -41 3 -3 9 3 13 19 10 13 -1 23 -7 22
-13z m2979 -12 c29 -19 52 -27 90 -27 47 -1 54 -5 89 -45 58 -65 114 -160 101
-173 -13 -13 -126 23 -174 55 -18 13 -61 63 -95 112 -80 117 -81 127 -11 78z
m-2552 -38 c-33 -19 -50 -18 -26 0 11 8 27 15 35 15 10 -1 7 -6 -9 -15z
m-1062 -95 c190 -27 422 -66 542 -91 209 -45 530 -218 622 -335 32 -40 13 -28
-61 39 -197 178 -530 284 -1156 368 -88 12 -169 25 -180 30 -38 15 82 9 233
-11z m280 13 c-10 -2 -26 -2 -35 0 -10 3 -2 5 17 5 19 0 27 -2 18 -5z m3671
-69 c24 -40 25 -44 10 -44 -8 0 -39 58 -39 75 0 12 9 3 29 -31z m142 -9 c30
-28 63 -105 50 -118 -22 -22 -78 26 -137 117 l-18 29 43 -6 c23 -3 51 -13 62
-22z m-2989 -63 c107 -51 248 -160 270 -208 14 -31 -7 -56 -62 -73 -48 -14
-56 -11 -160 69 -88 67 -211 150 -257 174 -41 21 -41 37 -1 71 43 36 79 31
210 -33z m-302 18 c14 -11 21 -20 17 -20 -11 0 -67 29 -67 35 0 11 27 3 50
-15z m-4469 -44 c9 -19 8 -41 -6 -95 -21 -87 -36 -111 -59 -92 -22 19 -38 85
-30 126 13 73 73 111 95 61z m7962 15 c45 -11 87 -46 87 -74 0 -17 -5 -19 -46
-14 -30 3 -55 13 -72 30 -15 14 -36 27 -47 29 -11 2 -21 11 -23 21 -3 13 4 17
30 17 18 0 50 -4 71 -9z m-4078 -78 c331 -82 586 -189 711 -297 51 -45 39 -56
-17 -16 -82 60 -223 132 -354 182 -135 52 -393 129 -492 148 -32 5 -62 15 -68
21 -14 16 51 5 220 -38z m-5689 2 c23 -35 29 -96 11 -120 -13 -17 -17 -18 -32
-5 -34 28 -59 123 -38 143 14 15 43 6 59 -18z m6316 -59 c79 -40 284 -181 292
-201 7 -19 -3 -24 -56 -31 -50 -7 -80 5 -197 81 -38 25 -112 66 -165 91 -53
25 -99 50 -102 55 -9 15 57 38 111 39 37 0 67 -9 117 -34z m-909 -11 c31 -15
29 -15 -50 -11 -86 4 -108 10 -97 28 9 14 104 3 147 -17z m3241 5 c6 -6 -31
-7 -100 -3 -60 3 -113 10 -119 16 -7 6 26 7 100 3 60 -3 113 -10 119 -16z
m-639 -5 c-108 -14 -181 -18 -173 -10 9 10 123 23 198 22 l75 0 -100 -12z
m813 -2 c-16 -2 -40 -2 -55 0 -16 2 -3 4 27 4 30 0 43 -2 28 -4z m-28 -37
c398 -44 618 -84 803 -146 167 -56 434 -190 602 -302 251 -167 385 -287 551
-495 80 -99 128 -150 160 -169 41 -24 44 -29 39 -56 -5 -19 -1 -37 9 -53 9
-13 12 -26 7 -30 -5 -3 -38 34 -74 82 -65 90 -97 124 -97 105 0 -20 137 -217
210 -300 39 -46 70 -86 67 -88 -2 -2 -35 18 -73 46 -75 55 -89 60 -81 30 3
-11 2 -20 -3 -20 -15 0 -29 26 -24 46 4 13 -8 37 -33 72 -73 96 -328 389 -358
411 -35 25 -47 10 -18 -22 35 -38 39 -51 15 -45 -39 11 -33 -9 18 -63 47 -48
88 -109 74 -109 -3 0 -56 47 -117 105 -114 107 -224 195 -242 194 -5 0 15 -21
45 -47 86 -72 269 -262 345 -358 39 -48 87 -105 109 -126 21 -22 36 -42 33
-45 -3 -3 -57 -9 -119 -14 -62 -5 -140 -15 -173 -24 -207 -53 -347 -203 -390
-415 -26 -128 -28 -132 -36 -66 -4 39 -14 65 -27 79 -21 20 -22 20 -42 2 -23
-21 -29 -17 -45 28 -14 39 -102 157 -124 164 -9 4 -45 35 -81 71 -36 35 -89
78 -118 95 -30 16 -58 39 -64 51 -12 26 -121 106 -166 121 -18 6 -47 25 -65
42 -17 17 -48 34 -67 38 -19 4 -48 15 -65 25 -16 10 -46 20 -66 24 -20 3 -53
20 -75 36 -31 24 -49 29 -90 30 -28 0 -68 7 -87 15 -20 8 -59 15 -87 15 -29 0
-93 5 -143 11 -66 7 -124 7 -207 -1 -63 -6 -146 -13 -185 -16 -63 -4 -73 -8
-96 -35 -23 -26 -30 -29 -47 -20 -31 16 -44 14 -94 -19 -30 -20 -56 -29 -80
-28 -24 1 -46 -7 -70 -25 -19 -15 -47 -27 -61 -27 -16 0 -44 -15 -72 -40 -25
-22 -55 -40 -67 -40 -11 0 -34 -15 -52 -34 -17 -19 -44 -38 -61 -41 -16 -4
-46 -22 -65 -41 -19 -18 -52 -40 -72 -49 -72 -30 -44 -45 82 -45 68 0 90 4
101 16 7 9 33 26 58 38 24 11 46 26 48 33 3 7 -12 19 -32 27 -26 11 -36 21
-33 33 5 26 36 28 83 4 47 -23 74 -19 122 19 14 11 41 23 62 26 20 4 59 20 87
35 28 16 62 29 75 29 13 0 38 9 54 20 17 11 45 20 63 20 18 0 49 7 69 15 19 8
58 15 85 15 29 0 62 7 79 17 24 14 33 15 49 5 25 -15 94 -16 135 -1 28 10 36
9 61 -10 25 -18 34 -20 64 -11 19 6 52 11 73 12 34 0 37 3 37 29 0 24 4 29 25
29 23 0 25 -4 25 -40 0 -32 4 -40 19 -40 10 0 30 -9 44 -20 15 -12 40 -20 62
-20 25 0 47 -8 67 -25 16 -14 38 -25 48 -25 11 0 35 -13 53 -30 28 -24 44 -30
81 -30 41 0 47 -3 61 -30 29 -56 108 -88 135 -55 16 20 44 19 65 -1 22 -22 15
-37 -25 -50 -45 -15 -48 -29 -8 -43 18 -6 46 -25 63 -42 16 -16 67 -66 113
-110 45 -43 82 -82 82 -86 0 -5 14 -16 30 -25 17 -9 30 -24 30 -32 0 -8 15
-27 34 -43 19 -15 39 -39 44 -53 6 -14 29 -49 51 -79 39 -52 50 -91 33 -117
-4 -6 -27 -21 -52 -34 -46 -23 -100 -67 -100 -82 0 -5 -33 -84 -72 -176 -106
-243 -105 -257 50 -587 94 -200 118 -276 132 -415 6 -63 19 -158 29 -210 11
-52 17 -97 14 -100 -8 -8 -22 24 -33 76 -11 51 -33 94 -44 84 -3 -3 1 -46 10
-95 11 -70 12 -95 2 -112 -15 -31 -26 -29 -46 8 -58 105 -51 52 15 -103 25
-60 49 -111 55 -114 19 -12 19 5 0 43 -11 21 -23 55 -27 75 -6 30 -4 36 15 41
16 4 26 -3 44 -32 38 -59 126 -239 126 -256 0 -8 7 -15 16 -15 25 0 13 44 -52
187 -31 69 -54 127 -51 129 2 3 21 -27 41 -65 20 -39 41 -73 46 -76 13 -8 13
28 1 40 -22 24 -122 384 -120 435 1 36 21 -21 70 -198 42 -151 68 -213 125
-291 18 -27 34 -53 34 -59 0 -6 14 -20 30 -32 17 -12 37 -34 45 -48 28 -53 32
-57 48 -44 11 10 23 4 60 -28 25 -23 60 -59 77 -81 l32 -39 -17 -43 c-44 -109
-64 -167 -57 -167 4 0 26 36 47 81 22 44 45 85 52 91 16 13 41 3 86 -36 l39
-32 -36 -68 c-20 -37 -36 -73 -36 -79 0 -7 -16 -25 -36 -40 -28 -23 -33 -31
-23 -43 13 -16 14 -16 -23 -31 -14 -7 -38 -32 -53 -57 -33 -56 -27 -86 16 -86
33 0 37 -15 12 -42 -19 -22 -10 -36 12 -18 9 8 15 8 15 2 0 -6 -21 -28 -46
-48 -25 -21 -60 -58 -77 -83 -17 -25 -43 -61 -59 -79 -15 -18 -28 -38 -28 -44
0 -16 35 18 93 91 28 35 53 59 55 53 4 -13 -32 -86 -64 -128 -13 -17 -20 -34
-17 -37 9 -10 43 12 43 27 0 8 20 43 45 79 25 37 45 70 45 75 0 14 81 124 87
118 6 -6 -85 -179 -133 -251 -34 -51 -58 -105 -50 -112 10 -10 116 145 209
308 72 124 126 204 133 196 3 -3 -15 -36 -39 -73 -24 -38 -68 -114 -98 -169
-30 -55 -61 -112 -69 -126 -8 -15 -48 -75 -88 -135 -69 -102 -83 -134 -46
-103 10 8 70 94 136 191 65 98 120 178 123 178 10 0 -21 -66 -65 -140 -77
-128 -158 -237 -249 -333 -75 -78 -88 -88 -112 -83 -22 4 -41 -6 -106 -57 -43
-34 -91 -68 -106 -76 -28 -15 -36 -31 -14 -31 7 0 52 27 101 60 89 60 106 68
106 51 0 -30 -139 -108 -482 -270 -38 -18 -114 -63 -170 -100 -505 -332 -825
-467 -1218 -512 -100 -11 -321 -8 -540 7 -57 4 -82 3 -75 -4 49 -49 547 -53
796 -6 162 30 431 129 650 239 59 30 185 105 281 168 185 122 296 188 284 169
-13 -21 -441 -300 -547 -356 -571 -301 -1132 -358 -1751 -177 -258 76 -453
148 -684 254 -130 60 -188 80 -166 56 22 -23 13 -30 -19 -14 -25 13 -28 19
-19 31 10 11 9 15 -4 20 -9 3 -25 4 -35 1 -13 -3 -17 0 -14 12 3 11 -14 26
-59 50 -146 80 -282 165 -379 238 -85 64 -100 78 -81 81 32 5 27 29 -10 48
-18 9 -66 46 -107 81 -41 36 -86 70 -100 76 -14 6 -34 17 -43 25 -10 9 -18 11
-18 6 0 -14 67 -75 115 -106 56 -36 121 -95 114 -102 -18 -18 -389 275 -389
306 0 5 16 0 36 -12 19 -12 38 -19 41 -16 8 7 -138 153 -180 181 -48 31 -43 6
11 -48 51 -52 61 -67 43 -67 -6 0 -106 93 -224 207 -500 486 -685 652 -977
876 -166 128 -238 174 -306 198 -29 10 -72 32 -97 49 -98 66 -260 114 -482
142 -132 17 -618 17 -745 0 -118 -16 -216 -36 -255 -53 l-30 -13 50 -6 50 -5
-79 -23 c-96 -28 -107 -35 -270 -185 -208 -191 -434 -380 -487 -409 -69 -37
-168 -108 -264 -188 -119 -99 -356 -253 -432 -280 l-28 -10 33 29 c18 15 62
45 97 66 35 20 70 44 77 52 6 8 28 23 47 33 53 27 314 217 324 236 8 15 6 16
-14 10 -94 -29 -91 -13 6 39 74 39 112 42 65 4 l-25 -20 30 14 c86 42 307 220
560 450 83 76 167 145 187 155 26 12 38 24 40 42 3 21 12 28 63 43 89 27 92
29 77 34 -19 7 -138 -16 -199 -39 -62 -23 -151 -85 -321 -225 -140 -115 -285
-219 -452 -323 -63 -40 -132 -89 -152 -110 -42 -43 -163 -107 -220 -116 -23
-4 -38 -12 -38 -21 0 -10 -9 -13 -32 -11 -18 2 -33 7 -33 12 0 5 38 29 85 54
310 163 618 357 734 462 157 141 378 294 486 335 38 15 68 30 65 34 -4 8 -86
-2 -125 -14 -25 -8 -26 11 -3 24 10 5 44 12 76 16 54 7 72 18 45 28 -7 2 -51
2 -98 0 -69 -3 -81 -1 -62 8 25 14 29 29 7 29 -9 0 -15 9 -15 24 0 16 -7 27
-20 31 -22 7 -27 24 -7 27 71 10 278 9 512 -2 191 -9 872 -25 945 -23 19 1 57
2 84 3 26 1 59 8 73 17 22 15 25 14 47 -6 23 -22 70 -28 81 -11 8 13 41 13 82
-2 27 -10 38 -10 54 0 14 9 25 9 39 2 24 -13 97 -13 105 -1 3 6 27 8 53 5 34
-4 53 -1 67 10 16 12 17 15 4 16 -9 0 -24 10 -35 21 -38 43 -77 50 -313 60
-216 9 -485 4 -540 -10 -14 -4 -31 -18 -37 -30 -20 -40 -32 -47 -51 -29 -14
14 -14 20 -3 33 7 8 10 19 6 23 -4 4 -49 10 -99 13 -51 4 -150 11 -222 18 -71
6 -260 13 -420 16 -398 7 -455 13 -455 46 0 22 51 49 97 50 26 0 24 2 -15 20
-40 17 -49 39 -18 39 8 0 19 7 26 15 10 12 46 15 200 15 142 0 189 3 193 13 3
8 10 7 26 -7 18 -17 21 -17 21 -3 0 21 39 57 62 57 13 0 18 -8 18 -25 0 -33
28 -45 46 -20 13 18 14 18 34 0 16 -14 20 -15 20 -4 0 26 31 61 44 50 7 -6 29
-8 49 -4 44 7 52 -13 10 -23 -46 -10 -53 -13 -53 -24 0 -6 8 -9 18 -7 9 3 33
8 53 11 40 7 49 23 49 84 0 17 2 32 5 32 19 0 68 -35 93 -66 l30 -37 35 22
c19 11 48 21 64 21 17 0 38 9 48 20 10 12 25 18 32 16 7 -3 15 -1 18 3 3 5 18
14 34 19 26 9 28 8 24 -9 -6 -21 4 -24 41 -9 14 5 26 16 26 25 0 12 13 15 60
15 50 0 61 3 70 21 16 29 6 47 -27 51 -34 4 -46 38 -14 38 12 0 21 4 21 10 0
11 53 40 72 39 7 0 3 -5 -9 -11 -28 -13 -33 -27 -22 -57 9 -22 13 -23 54 -18
25 4 45 4 45 1 0 -2 -19 -13 -42 -24 -30 -13 -37 -19 -22 -19 12 -1 38 10 58
24 20 14 43 25 50 25 7 0 21 10 32 21 10 12 36 32 57 45 41 27 48 44 17 44
-26 0 -26 17 1 25 25 8 69 -2 69 -16 0 -5 -12 -21 -27 -35 l-28 -25 29 6 c15
3 58 21 95 39 67 32 82 54 62 86 -9 12 -16 11 -56 -8 -25 -12 -50 -22 -55 -22
-17 0 -11 18 8 24 10 4 68 39 129 79 112 72 200 143 366 292 123 111 179 156
185 150 3 -3 -3 -14 -13 -25 -20 -22 -7 -27 28 -9 15 7 12 1 -11 -20 -18 -17
-42 -31 -53 -31 -18 0 -19 -2 -9 -15 8 -10 9 -19 4 -25 -33 -31 -132 -102
-151 -106 -16 -4 -23 -14 -23 -30 0 -13 4 -24 10 -24 15 0 140 88 160 113 16
19 20 20 36 7 16 -14 17 -13 11 10 -8 32 17 60 54 60 30 0 89 43 89 66 0 8 -3
14 -7 14 -5 0 -14 12 -21 27 -10 23 -10 30 4 43 15 14 16 13 11 -2 -12 -33 11
-27 59 15 l49 42 -37 -47 c-21 -25 -38 -49 -38 -52 0 -31 113 71 160 144 34
53 37 70 14 70 -14 0 -14 3 -4 15 10 12 16 13 26 4 18 -15 27 -7 126 105 72
84 96 124 47 80 -58 -51 9 31 131 161 136 144 178 195 162 195 -10 0 -355
-357 -389 -403 -16 -22 -20 -34 -12 -43 6 -8 7 -14 0 -18 -5 -4 -12 -2 -16 4
-10 16 -20 12 -50 -17 -39 -39 -65 -84 -65 -112 0 -20 -2 -22 -15 -11 -13 11
-23 5 -62 -36 -49 -50 -74 -46 -31 6 215 265 315 377 347 388 15 5 74 61 132
123 179 195 184 199 216 199 16 0 51 14 77 31 60 40 70 30 17 -17 -40 -37 -50
-54 -31 -54 27 0 341 292 328 305 -3 3 -45 -31 -93 -75 -49 -44 -91 -78 -94
-75 -3 3 35 47 85 98 133 137 158 166 151 174 -4 3 -52 -37 -106 -90 -54 -53
-101 -97 -105 -97 -12 0 101 120 214 226 156 147 255 234 348 303 46 35 87 73
92 85 5 15 20 25 40 30 18 3 91 38 163 78 385 210 766 364 1110 447 211 51
213 51 127 46 -84 -5 -221 -37 -388 -89 -125 -40 -152 -43 -152 -21 0 9 9 15
23 15 25 0 61 9 242 63 108 32 250 59 450 86 102 14 594 5 765 -13z m-7222
-22 c26 -18 31 -71 6 -81 -19 -7 -74 43 -74 68 0 30 35 37 68 13z m4010 -38
c143 -41 291 -95 387 -141 112 -54 263 -147 248 -152 -6 -2 -85 34 -175 81
-202 105 -277 137 -447 187 -74 21 -137 41 -139 44 -12 12 46 3 126 -19z m490
-17 c118 -49 198 -93 282 -155 l64 -47 -49 -24 c-67 -35 -94 -28 -244 61 -69
41 -147 85 -173 96 -54 24 -63 50 -23 68 14 6 25 18 25 27 0 22 9 20 118 -26z
m-383 -78 c3 -5 1 -12 -5 -16 -13 -8 -50 3 -50 16 0 12 47 12 55 0z m-207 -86
c7 -7 -33 -6 -52 1 -9 3 -16 10 -16 14 0 8 58 -4 68 -15z m239 2 c-5 -15 -20
-18 -37 -7 -13 9 -13 11 -1 19 17 11 43 3 38 -12z m211 -5 c81 -31 232 -140
232 -167 0 -6 -16 -19 -36 -29 l-37 -17 -91 55 c-50 30 -116 66 -148 80 -71
32 -78 43 -44 73 33 28 60 29 124 5z m-337 -23 c164 -53 449 -184 449 -206 0
-19 -9 -17 -74 23 -97 58 -164 89 -301 138 -71 26 -132 49 -134 52 -8 8 26 4
60 -7z m-266 -119 c162 -32 430 -131 504 -188 55 -42 20 -37 -76 11 -151 76
-357 145 -515 172 -21 3 -38 10 -38 15 0 13 3 13 125 -10z m525 -41 c129 -61
174 -103 138 -125 -53 -33 -311 61 -352 129 -9 15 -7 21 9 33 31 24 107 10
205 -37z m-137 -159 c43 -18 92 -44 108 -58 l30 -25 -22 -23 c-12 -13 -29 -24
-37 -24 -22 0 -302 137 -302 148 0 19 18 24 80 19 42 -3 92 -16 143 -37z
m-262 -30 c116 -38 266 -107 256 -117 -3 -2 -45 13 -94 35 -48 22 -144 56
-213 77 -69 20 -132 41 -140 46 -31 20 78 -4 191 -41z m148 -119 c58 -26 106
-51 108 -57 1 -5 -13 -20 -33 -33 -33 -23 -37 -24 -62 -9 -15 8 -45 21 -67 28
-84 26 -122 62 -110 101 10 30 50 22 164 -30z m-159 -122 c53 -24 110 -66 110
-81 0 -26 -181 32 -211 68 -30 37 31 45 101 13z m-219 -18 c119 -41 269 -103
269 -111 0 -12 -60 8 -202 67 -104 44 -143 63 -126 63 3 0 29 -8 59 -19z m148
-124 c41 -23 76 -48 78 -54 3 -7 -7 -18 -21 -25 -22 -10 -36 -8 -88 14 -48 20
-66 23 -80 15 -13 -9 -37 -5 -101 16 -76 25 -137 56 -111 57 6 0 37 -9 69 -20
82 -28 111 -26 143 10 15 17 29 30 32 30 3 -1 38 -20 79 -43z m5227 -3 c18
-20 38 -51 44 -67 l10 -31 -24 23 c-36 34 -89 111 -75 111 6 0 26 -16 45 -36z
m-5246 -102 c38 -24 7 -26 -34 -1 -20 11 -36 23 -36 26 0 7 43 -8 70 -25z
m3205 8 c7 -23 -10 -50 -31 -50 -25 0 -45 30 -34 51 14 26 57 25 65 -1z
m-3299 -34 c41 -19 74 -39 74 -43 0 -5 -13 -22 -29 -37 -31 -30 -61 -30 -61
-1 0 19 -39 35 -86 35 -19 0 -34 2 -34 5 0 22 32 75 45 75 9 0 50 -15 91 -34z
m3474 9 c0 -18 -5 -25 -19 -25 -11 0 -23 5 -26 10 -11 18 3 40 25 40 15 0 20
-7 20 -25z m-490 0 c22 -26 8 -50 -30 -50 -36 0 -49 18 -36 51 7 18 50 18 66
-1z m128 -2 c-5 -26 -38 -29 -38 -4 0 15 6 21 21 21 14 0 19 -5 17 -17z
m-3363 -8 c29 -13 29 -13 5 -14 -34 -1 -70 9 -70 20 0 13 30 10 65 -6z m3985
-20 c17 -20 5 -45 -20 -45 -11 0 -23 7 -26 15 -6 15 11 45 26 45 4 0 13 -7 20
-15z m-904 -30 c14 -35 -41 -60 -66 -30 -10 12 -10 18 0 30 16 19 59 19 66 0z
m2648 -104 c-7 -7 -104 100 -103 114 0 6 24 -17 54 -49 30 -33 52 -62 49 -65z
m-5604 54 c27 -14 58 -25 68 -25 11 0 25 -7 32 -15 9 -11 7 -19 -14 -40 -30
-30 -40 -31 -74 -5 -18 15 -34 19 -54 15 -22 -5 -35 -1 -59 19 -17 14 -42 26
-56 26 -18 0 -24 5 -21 17 4 23 34 28 65 12 20 -11 26 -10 40 4 21 21 14 22
73 -8z m4020 12 c0 -7 -5 -18 -12 -25 -18 -18 -38 -15 -38 6 0 10 3 22 7 25
11 12 43 7 43 -6z m-1204 -12 c14 -35 -41 -60 -66 -30 -10 12 -10 18 0 30 16
19 59 19 66 0z m1326 -49 c10 -16 -11 -36 -38 -36 -18 0 -24 5 -24 23 0 13 3
27 7 30 8 9 46 -2 55 -17z m-8952 -16 c4 -8 14 -30 24 -49 9 -18 15 -36 12
-38 -2 -2 -20 10 -40 27 -39 34 -51 84 -20 78 9 -2 20 -10 24 -18z m7500 6 c0
-20 -28 -46 -49 -46 -28 0 -46 26 -31 45 16 20 80 20 80 1z m1585 -76 c0 -20
-6 -26 -28 -28 -18 -2 -29 2 -33 12 -11 28 4 48 33 44 22 -2 28 -8 28 -28z
m-4315 -2 c45 -24 52 -37 27 -52 -30 -19 -157 40 -142 65 11 16 70 9 115 -13z
m-194 -34 c18 -15 18 -15 -11 -9 -37 8 -57 25 -29 25 11 0 29 -7 40 -16z
m2664 -39 c17 -20 4 -35 -30 -35 -16 0 -32 5 -35 10 -9 15 13 40 35 40 10 0
23 -7 30 -15z m3120 5 c21 -13 8 -21 -54 -29 -31 -4 -64 -15 -75 -25 -17 -16
-19 -16 -24 2 -6 25 3 39 33 51 32 13 101 13 120 1z m-245 -51 c0 -8 -10 -15
-22 -17 -25 -4 -33 22 -10 31 18 8 32 2 32 -14z m451 6 c16 -12 17 -14 2 -15
-23 0 -48 11 -48 21 0 14 24 11 46 -6z m-5891 -9 c23 -10 35 -22 35 -34 0 -26
-21 -33 -60 -22 -47 14 -62 28 -49 51 12 23 28 24 74 5z m4626 -22 c9 -11 10
-20 2 -32 -15 -24 -44 -27 -59 -7 -28 38 27 75 57 39z m1092 -30 c-45 -19
-113 -34 -113 -23 0 8 46 23 100 32 43 7 46 6 13 -9z m575 -1 c74 -10 49 -26
-30 -19 -146 13 -178 18 -172 28 6 10 95 6 202 -9z m-920 -13 c39 -24 79 -26
103 -4 10 9 25 14 34 11 19 -8 20 -27 1 -27 -7 0 -16 -9 -19 -20 -12 -46 -167
-75 -167 -31 0 9 5 22 11 28 6 6 9 17 7 23 -3 9 -8 8 -20 -4 -21 -21 -28 -20
-28 2 0 20 18 42 35 42 5 0 25 -9 43 -20z m605 -7 c-7 -2 -19 -2 -25 0 -7 3
-2 5 12 5 14 0 19 -2 13 -5z m-35 -35 c-5 -15 -58 -24 -58 -9 0 11 17 19 43
20 11 1 17 -4 15 -11z m-6040 -18 c38 -23 40 -53 3 -58 -12 -2 -45 6 -71 17
-27 12 -55 21 -64 21 -8 0 -27 5 -43 12 -26 12 -24 13 42 18 39 4 77 7 85 8 8
1 30 -7 48 -18z m4826 -3 c9 -15 7 -21 -9 -33 -39 -29 -78 -2 -61 42 8 21 56
14 70 -9z m1610 7 c25 -4 46 -11 46 -16 0 -5 -50 -6 -123 -2 -100 5 -133 4
-181 -10 -32 -10 -60 -15 -62 -13 -28 27 203 57 320 41z m-10527 -70 c3 -8 0
-21 -6 -27 -10 -9 -16 -8 -26 7 -8 10 -12 23 -9 27 9 15 34 10 41 -7z m9633
-140 c-84 -174 -114 -342 -108 -605 3 -91 12 -211 22 -269 15 -87 17 -145 13
-340 -6 -254 -10 -290 -38 -297 -10 -3 -22 -17 -27 -32 l-9 -26 -12 23 c-9 18
-10 35 -2 70 15 69 23 245 12 261 -11 16 -17 -8 -30 -119 -6 -57 -8 -45 -15
105 -4 94 -14 236 -22 316 -7 80 -13 179 -13 220 l1 74 19 -115 c27 -168 41
-230 51 -230 4 0 6 10 3 23 -10 46 -24 176 -31 282 -6 113 4 235 33 395 15 85
32 135 33 97 0 -46 27 -1 61 105 39 122 61 171 88 202 15 18 16 17 19 -8 2
-17 -16 -66 -48 -132z m-83 129 c2 -6 -10 -16 -27 -21 -35 -13 -37 -10 -13 18
18 21 34 22 40 3z m-539 -6 c15 -17 2 -34 -31 -42 -29 -8 -45 11 -33 40 7 18
50 20 64 2z m916 -1 c-6 -15 -34 -30 -41 -22 -5 5 26 36 37 36 5 0 7 -6 4 -14z
m166 8 c0 -4 -18 -25 -41 -47 -43 -44 -75 -97 -95 -162 -6 -22 -17 -39 -23
-37 -15 3 -41 -59 -41 -98 0 -18 6 -33 15 -36 19 -8 45 13 45 35 0 9 9 34 20
56 14 27 19 32 15 15 -12 -60 -18 -240 -8 -240 14 0 23 24 23 61 0 49 17 33
46 -43 98 -258 413 -303 636 -90 32 30 61 52 65 49 3 -4 -1 -15 -10 -24 -29
-32 -38 -71 -21 -87 13 -14 10 -20 -31 -59 -25 -24 -45 -48 -45 -54 0 -6 -9
-13 -21 -16 -15 -4 -20 -12 -17 -29 5 -36 36 -28 66 16 30 44 52 57 52 30 0
-10 9 -37 21 -61 17 -36 19 -48 10 -74 -6 -17 -8 -35 -5 -40 3 -5 -3 -9 -14
-9 -25 0 -72 -47 -65 -66 3 -8 14 -14 24 -14 25 0 25 -31 1 -60 -18 -22 -20
-22 -44 -6 -40 26 -52 3 -44 -82 l7 -68 -157 -145 c-86 -79 -188 -172 -227
-207 l-70 -63 -36 35 c-22 22 -51 38 -76 44 -33 6 -41 12 -43 34 -3 23 3 30
35 43 21 9 48 25 60 37 30 28 43 16 43 -40 0 -52 17 -89 27 -62 7 16 43 52
140 140 l62 55 -6 49 c-6 46 -4 51 23 73 l29 23 -32 0 c-17 0 -34 -6 -37 -12
-3 -9 -8 -7 -17 6 -17 27 -29 3 -29 -64 -2 -90 -18 -123 -67 -138 -24 -8 -43
-18 -43 -23 0 -5 -4 -9 -10 -9 -5 0 -10 9 -10 20 0 12 -7 20 -17 20 -10 0 -26
7 -35 14 -19 14 -24 36 -9 36 5 0 11 10 15 23 5 17 8 19 15 9 24 -38 92 20 70
60 -15 28 -48 21 -84 -16 l-32 -35 -12 40 c-15 50 -29 42 -29 -15 0 -45 -19
-93 -46 -115 -18 -15 -36 -7 -36 17 0 9 -7 30 -15 46 -19 36 -19 34 8 29 31
-6 44 13 55 79 8 50 6 63 -21 129 -35 89 -68 199 -59 199 4 0 40 -33 80 -72
l74 -73 -6 40 c-10 56 -34 85 -102 123 -32 18 -71 47 -86 65 -15 18 -37 42
-48 55 -11 13 -18 27 -15 33 4 5 1 25 -5 45 -7 19 -9 38 -6 41 10 10 36 -19
36 -41 0 -25 17 -46 38 -46 12 0 14 13 9 73 -9 98 -16 120 -33 107 -15 -13
-39 -3 -68 29 -16 17 -17 25 -8 44 6 12 13 47 17 77 13 111 100 285 189 377
45 45 86 68 86 47z m-6085 -48 c22 -8 39 -18 39 -23 -3 -25 -96 -44 -109 -23
-5 9 19 60 28 60 1 0 20 -7 42 -14z m5761 -31 c-37 -56 -73 -122 -88 -160 -17
-43 -33 -125 -25 -125 3 0 30 52 61 115 30 63 60 115 65 115 6 0 11 9 11 20 0
11 5 20 10 20 18 0 10 -32 -15 -62 -67 -79 -123 -441 -95 -617 9 -58 9 -93 2
-128 -31 -144 -35 -174 -24 -196 6 -12 16 -58 22 -102 17 -117 35 -180 59
-204 27 -27 27 -45 0 -38 -30 8 -33 -12 -19 -116 18 -139 17 -137 53 -134 29
2 31 0 39 -43 14 -80 -25 -140 -92 -140 -29 0 -22 -34 8 -38 32 -5 27 -22 -7
-22 -39 0 -47 -15 -19 -34 54 -38 94 -10 84 56 l-7 42 27 -24 c90 -85 85 -237
-9 -228 -27 2 -35 10 -51 46 -22 48 -27 51 -41 20 -24 -54 -83 -4 -63 53 11
32 5 161 -11 234 -6 28 -15 208 -20 400 -7 236 -16 382 -27 450 -12 70 -17
162 -17 310 0 200 1 214 27 300 33 111 77 207 83 183 4 -14 8 -16 24 -8 10 6
19 16 19 22 0 11 39 58 48 58 2 0 -3 -11 -12 -25z m-9926 -45 c30 -16 67 -29
82 -30 18 0 29 -7 33 -20 4 -12 101 -83 228 -169 122 -82 247 -169 278 -193
86 -65 350 -288 382 -321 43 -46 32 -54 -16 -11 -46 43 -273 229 -340 281 -23
18 -65 51 -93 73 -64 52 -102 75 -137 84 -16 4 -47 24 -70 45 -80 74 -157 113
-157 81 0 -19 -47 -10 -91 19 -25 16 -61 48 -80 71 -19 23 -49 60 -68 81 -40
47 -26 50 49 9z m9245 0 c0 -9 -11 -16 -27 -18 -23 -3 -28 1 -28 18 0 17 5 21
28 18 16 -2 27 -9 27 -18z m1259 -38 c8 -15 18 -46 22 -67 7 -38 6 -39 -12
-26 -71 55 -88 83 -62 109 19 19 36 14 52 -16z m189 10 c63 -69 62 -235 -1
-305 -24 -27 -91 -59 -108 -53 -25 10 -15 35 25 60 79 50 95 183 33 271 l-32
45 34 0 c19 0 40 -8 49 -18z m-6595 -17 c9 -9 -6 -31 -32 -44 -34 -18 -51 -4
-42 34 6 24 10 27 38 21 17 -3 34 -8 36 -11z m6862 -53 c0 -23 -17 -4 -23 25
-5 26 -4 26 9 8 8 -10 14 -25 14 -33z m-84 -27 c57 -149 -51 -369 -207 -420
-70 -23 -188 -17 -250 14 -107 52 -181 155 -193 269 -6 59 8 71 19 15 19 -103
99 -196 196 -228 69 -23 198 -17 254 12 56 29 118 99 141 159 20 51 25 142 12
202 -11 46 7 32 28 -23z m-6544 8 c-11 -15 -33 -39 -48 -53 -30 -27 -26 -19
25 48 36 47 56 51 23 5z m5919 -23 l-10 -25 0 27 c-1 14 2 35 6 45 7 17 8 17
11 -2 1 -12 -2 -32 -7 -45z m-5774 13 c-9 -9 -19 -14 -22 -11 -3 3 2 13 11 22
9 9 19 14 22 11 3 -3 -2 -13 -11 -22z m-3845 -60 c67 -55 108 -96 78 -78 -22
12 -170 136 -170 141 0 8 22 -7 92 -63z m8888 -42 c0 -22 -5 -52 -10 -67 -8
-20 -7 -32 5 -50 21 -32 19 -47 -10 -72 -19 -16 -25 -32 -26 -64 -2 -42 -2
-42 -14 17 l-12 60 -21 -65 -20 -65 5 73 c4 47 2 72 -4 72 -15 0 -23 -25 -23
-70 0 -21 -4 -41 -9 -45 -12 -7 -41 22 -41 41 0 20 -33 17 -62 -5 -45 -36 -98
-157 -74 -171 11 -6 23 15 31 53 3 16 18 41 33 55 l27 27 3 -32 c4 -38 12 -41
37 -13 30 33 49 26 42 -17 -7 -43 -27 -69 -27 -34 0 19 -4 21 -22 16 -13 -4
-27 -11 -32 -16 -6 -5 -19 -9 -30 -9 -18 0 -19 -6 -13 -173 12 -297 25 -357
82 -368 24 -5 33 -42 40 -154 4 -60 2 -83 -4 -70 -5 11 -10 43 -10 70 -1 67
-12 125 -22 125 -5 0 -9 -10 -9 -22 0 -32 -15 -55 -23 -35 -3 8 -3 24 0 35 6
24 -16 40 -28 21 -15 -23 -71 49 -134 173 -40 79 -55 120 -53 142 4 40 21 40
29 1 5 -26 6 -22 13 25 26 193 63 333 100 377 13 15 28 38 35 51 6 12 20 22
30 22 10 0 38 9 62 20 24 11 61 20 82 20 41 0 48 13 17 32 -29 18 -25 35 10
43 32 7 39 22 16 31 -12 5 -13 11 -4 30 18 38 38 30 38 -15z m-8513 -290 c49
-40 69 -74 25 -42 -32 23 -104 98 -82 86 8 -5 34 -24 57 -44z m10082 -13 c15
-9 25 -9 46 0 36 17 50 16 36 -2 -7 -8 -26 -18 -42 -21 -16 -4 -42 -18 -58
-31 -26 -21 -33 -23 -55 -13 -20 9 -32 9 -51 1 -21 -10 -27 -9 -32 4 -20 52
98 98 156 62z m-10594 -48 c8 -13 -25 -13 -45 0 -12 8 -9 10 12 10 15 0 30 -4
33 -10z m-100 -10 c3 -5 -3 -10 -14 -10 -11 0 -23 5 -26 10 -3 6 3 10 14 10
11 0 23 -4 26 -10z m733 -43 c2 -10 -3 -17 -12 -17 -9 0 -16 2 -16 4 0 2 -3
12 -6 21 -5 13 -2 16 12 13 10 -2 20 -11 22 -21z m-619 -23 c3 -16 1 -17 -13
-5 -19 16 -21 34 -3 29 6 -3 14 -13 16 -24z m8778 -36 c-3 -7 -5 -2 -5 12 0
14 2 19 5 13 2 -7 2 -19 0 -25z m-8755 -14 c83 -42 190 -107 418 -254 91 -59
180 -115 198 -124 19 -10 32 -20 29 -22 -7 -7 -80 31 -221 115 -66 39 -124 71
-129 71 -5 0 -28 16 -50 36 -48 40 -154 94 -187 94 -22 0 -22 0 4 -27 42 -44
92 -106 98 -124 4 -10 23 -18 55 -22 52 -6 126 -35 158 -62 19 -16 18 -16 -23
-12 -24 3 -61 17 -82 32 -29 20 -46 25 -68 21 -22 -5 -42 1 -87 29 -32 19 -62
35 -67 35 -4 0 -8 5 -8 10 0 6 7 10 15 10 24 0 17 18 -12 32 -15 7 -30 23 -33
35 -3 13 -27 36 -54 53 -33 22 -45 35 -38 42 7 7 16 6 30 -1 26 -14 42 -14 42
-1 0 10 -9 15 -77 40 -18 7 -33 16 -33 21 0 19 54 7 122 -27z m10656 -44 c7
-11 19 -20 26 -20 24 0 28 -18 6 -30 -25 -13 -56 1 -65 30 -12 38 12 53 33 20z
m197 -20 c22 -42 20 -107 -4 -120 -11 -5 -27 -18 -36 -27 -16 -16 -18 -16 -31
2 -8 10 -14 35 -14 54 l1 36 18 -34 c21 -40 36 -27 27 24 -4 19 -2 36 4 40 5
3 10 17 10 31 0 32 6 30 25 -6z m-206 -116 c12 -30 21 -61 21 -69 0 -8 5 -17
10 -20 13 -8 13 65 0 100 -13 33 -6 45 20 38 16 -4 18 -8 9 -20 -10 -11 -5
-20 24 -44 21 -17 37 -38 37 -47 0 -10 -34 -41 -78 -71 -192 -136 -363 -307
-505 -506 -96 -133 -167 -205 -205 -205 -36 0 -73 28 -113 86 -21 31 -29 52
-25 67 8 33 138 180 208 236 119 95 152 127 266 261 217 254 219 256 277 165
37 -56 62 -73 49 -32 -3 12 -17 48 -30 79 -13 32 -24 63 -24 70 1 24 39 -32
59 -88z m-10064 46 c16 -16 26 -32 24 -35 -3 -2 -21 11 -39 30 -19 19 -29 35
-24 35 6 0 23 -13 39 -30z m8895 -153 c11 -40 20 -83 20 -97 -1 -24 -1 -24
-12 -5 -6 11 -19 29 -29 40 -12 14 -23 55 -34 123 -8 56 -15 105 -14 109 2 17
51 -104 69 -170z m-104 128 c-7 -29 -26 -34 -26 -7 0 18 20 45 28 37 2 -2 2
-16 -2 -30z m-431 -15 c-3 -5 -17 -10 -31 -10 -14 0 -22 4 -19 10 3 6 17 10
31 10 14 0 22 -4 19 -10z m-8255 -55 c13 -14 19 -25 13 -25 -5 0 -20 11 -33
25 -13 14 -19 25 -13 25 5 0 20 -11 33 -25z m8167 -42 c-3 -10 -5 -4 -5 12 0
17 2 24 5 18 2 -7 2 -21 0 -30z m549 -74 c5 -39 3 -51 -4 -44 -6 6 -14 37 -17
70 -8 76 11 54 21 -26z m-8501 -73 c39 -36 66 -65 60 -65 -12 -1 -218 185
-224 202 -5 13 63 -43 164 -137z m8102 87 c-3 -10 -5 -4 -5 12 0 17 2 24 5 18
2 -7 2 -21 0 -30z m-8799 -13 c42 -22 160 -79 262 -128 250 -119 510 -253 510
-264 0 -14 -19 -9 -59 16 -21 14 -129 70 -239 125 -140 70 -222 105 -270 115
-114 24 -247 92 -292 149 -31 40 -5 36 88 -13z m8709 -7 c-3 -10 -5 -4 -5 12
0 17 2 24 5 18 2 -7 2 -21 0 -30z m-6247 -2 c0 -12 -29 -23 -41 -15 -5 3 -7
10 -4 15 8 12 45 12 45 0z m6197 -58 c-3 -10 -5 -4 -5 12 0 17 2 24 5 18 2 -7
2 -21 0 -30z m603 0 c6 -21 17 -47 25 -57 21 -28 19 -88 -5 -119 -24 -30 -25
-62 -5 -101 13 -25 13 -31 1 -45 -8 -9 -21 -32 -29 -51 -13 -31 -16 -33 -23
-16 -4 11 -2 63 5 116 11 90 10 100 -8 141 -12 24 -21 58 -20 74 0 29 0 29 14
11 14 -18 15 -16 15 32 0 61 15 68 30 15z m-8376 -4 c15 -12 25 -23 22 -26 -7
-7 -66 26 -66 37 0 16 15 12 44 -11z m7933 -51 c-2 -13 -4 -5 -4 17 -1 22 1
32 4 23 2 -10 2 -28 0 -40z m-8269 -1 c65 -39 68 -56 4 -23 -55 28 -110 72
-77 61 11 -3 44 -20 73 -38z m8165 -185 c9 -12 9 -16 0 -19 -22 -8 -14 -28 22
-60 l35 -31 0 -94 c0 -98 8 -125 34 -115 17 7 35 -41 57 -152 18 -92 6 -92
-34 0 -21 46 -45 95 -53 109 -66 108 -123 369 -107 486 l7 49 13 -79 c7 -44
19 -86 26 -94z m-8389 17 c242 -114 368 -181 374 -197 5 -15 17 -21 -318 145
-265 130 -374 191 -296 163 16 -6 124 -56 240 -111z m547 74 l24 -27 -24 15
c-14 9 -27 21 -29 27 -6 19 3 14 29 -15z m7896 -30 c-3 -10 -5 -2 -5 17 0 19
2 27 5 18 2 -10 2 -26 0 -35z m-7969 -46 c23 -17 42 -35 42 -40 0 -5 -10 -2
-22 7 -13 9 -36 24 -52 34 -16 9 -43 30 -60 45 l-31 29 40 -23 c22 -12 59 -36
83 -52z m-330 -10 c2 -12 -1 -15 -12 -11 -22 8 -30 36 -9 32 10 -2 19 -11 21
-21z m485 -44 c-7 -2 -19 -2 -25 0 -7 3 -2 5 12 5 14 0 19 -2 13 -5z m9626
-104 c34 -7 57 -19 71 -36 33 -42 25 -56 -16 -28 -56 38 -108 41 -196 11 -81
-28 -118 -32 -150 -15 -14 8 -28 7 -49 -1 -35 -15 -30 -26 16 -34 134 -25
-151 -195 -328 -196 l-38 0 40 58 c23 32 63 79 89 105 41 40 59 50 113 63 35
8 98 26 139 39 122 41 227 52 309 34z m-10321 -79 c11 0 23 -4 26 -9 10 -16
-73 -28 -107 -15 -13 5 -13 9 1 34 17 29 17 29 38 9 11 -10 30 -19 42 -19z
m248 0 c16 -6 65 -18 109 -26 82 -16 115 -28 115 -43 0 -14 -382 70 -403 88
-11 10 145 -6 179 -19z m-166 -60 c0 -10 -7 -12 -115 -34 -68 -14 -100 -12
-74 5 8 5 28 9 45 9 16 0 39 7 50 15 21 16 94 20 94 5z m10190 1 c0 -19 -18
-20 -61 -7 l-44 14 53 1 c28 1 52 -3 52 -8z m-1253 -43 c-3 -7 -5 -2 -5 12 0
14 2 19 5 13 2 -7 2 -19 0 -25z m-8368 13 c18 -11 5 -31 -20 -31 -12 0 -19 7
-19 20 0 21 16 26 39 11z m139 -12 c2 -9 -4 -19 -12 -22 -19 -8 -51 17 -42 32
11 17 50 9 54 -10z m112 2 c0 -11 -4 -22 -8 -25 -14 -9 -35 12 -29 28 9 23 37
20 37 -3z m127 3 c8 -22 -18 -37 -36 -20 -7 8 -10 19 -7 25 10 16 36 13 43 -5z
m251 -12 c5 -16 -35 -24 -59 -11 -21 11 -22 12 -5 25 19 13 57 5 64 -14z
m9058 15 c11 -31 -38 -129 -98 -193 -33 -35 -55 -64 -49 -64 25 0 7 -25 -69
-97 -44 -41 -105 -112 -134 -157 -64 -95 -83 -110 -120 -93 -29 14 -34 27 -10
27 17 0 84 67 84 83 0 5 -7 7 -15 3 -40 -15 -3 30 120 149 74 72 135 134 135
138 0 19 -34 3 -78 -37 -27 -24 -61 -46 -74 -49 -14 -4 -30 -18 -36 -32 -7
-14 -24 -30 -39 -36 -16 -6 -39 -17 -53 -24 -14 -7 -39 -16 -57 -19 -17 -4
-43 -18 -57 -31 -15 -13 -50 -32 -79 -41 -62 -19 -237 -32 -237 -17 0 6 42 13
98 15 99 5 176 27 186 53 10 26 -11 25 -69 -2 -60 -27 -169 -42 -219 -29 -47
12 -27 26 35 26 33 0 58 4 55 9 -6 9 -158 37 -166 30 -3 -2 -4 -7 -3 -11 5
-14 -11 -8 -64 22 -98 56 -76 72 47 34 60 -18 117 -28 192 -31 139 -7 191 1
231 37 18 15 50 35 72 44 22 10 54 31 71 47 17 17 46 38 65 47 80 40 -10 48
-148 13 -43 -11 -105 -23 -138 -27 -33 -3 -68 -11 -77 -16 -13 -6 -18 -5 -18
6 0 7 -8 17 -17 20 -15 6 -15 8 -3 16 8 6 29 10 45 10 59 1 162 29 259 70 54
23 116 45 137 47 23 3 39 11 39 19 0 21 42 44 82 44 82 0 51 -46 -58 -86 -87
-31 -100 -44 -47 -44 49 0 145 46 206 98 51 45 65 50 73 29z m-9196 -7 c13 -9
13 -11 0 -20 -8 -5 -21 -8 -28 -5 -8 3 -18 5 -23 5 -5 0 -9 4 -9 9 0 8 13 14
40 20 3 0 12 -4 20 -9z m218 -19 c-4 -20 -36 -27 -52 -11 -8 8 -6 15 7 25 23
17 49 9 45 -14z m110 0 c-4 -20 -36 -27 -52 -11 -8 8 -6 15 7 25 23 17 49 9
45 -14z m122 4 c32 -17 38 -32 16 -41 -22 -8 -56 14 -56 36 0 24 3 24 40 5z
m504 9 c25 -10 19 -34 -9 -34 -24 0 -34 18 -18 33 8 8 8 8 27 1z m159 -18 c8
-20 -20 -43 -35 -28 -14 14 -3 42 16 42 7 0 16 -6 19 -14z m131 8 c23 -9 20
-34 -3 -34 -22 0 -35 15 -26 30 7 12 8 12 29 4z m-2017 -20 c2 -6 -6 -14 -19
-18 -30 -7 -173 -8 -165 0 28 29 176 43 184 18z m1491 -1 c-4 -20 -27 -27 -47
-14 -19 12 -4 31 25 31 19 0 25 -5 22 -17z m-1815 0 c-7 -2 -21 -2 -30 0 -10
3 -4 5 12 5 17 0 24 -2 18 -5z m1945 -10 c5 -17 -26 -29 -40 -15 -6 6 -7 15
-3 22 9 14 37 9 43 -7z m547 -3 c0 -23 -49 -20 -53 3 -3 15 2 18 25 15 17 -2
28 -9 28 -18z m-2395 -19 c0 -6 -5 -13 -10 -16 -15 -9 -43 3 -35 15 8 13 45
13 45 1z m320 -60 c0 -15 -22 -27 -124 -70 -112 -46 -127 -49 -101 -21 10 11
23 20 30 20 6 0 47 18 90 39 82 41 105 48 105 32z m9068 -58 c5 -18 -10 -16
-34 2 -18 15 -18 15 5 13 14 -2 26 -9 29 -15z m52 -38 c0 -14 6 -25 13 -25 7
0 28 -11 47 -25 33 -24 80 -34 80 -17 0 5 -9 17 -20 27 -26 24 -15 31 65 40
59 8 60 7 43 -12 -10 -11 -18 -27 -18 -35 0 -9 -8 -26 -19 -39 -17 -21 -28
-24 -122 -27 -57 -2 -120 0 -139 5 -48 13 -46 37 3 41 46 4 47 16 5 42 l-33
20 26 0 c15 0 32 7 39 15 18 22 30 18 30 -10z m-195 -40 c22 -13 33 -24 25
-25 -16 0 -80 36 -80 45 0 10 16 4 55 -20z m-8921 -9 c-59 -44 -238 -149 -369
-217 -192 -101 -182 -94 -166 -113 11 -13 11 -16 -2 -16 -19 0 -50 41 -39 51
4 3 22 11 41 18 19 6 136 69 260 140 257 146 284 161 290 155 3 -2 -4 -11 -15
-18z m-224 -46 c0 -12 -48 -25 -58 -16 -8 9 18 26 41 26 9 0 17 -4 17 -10z
m1090 -10 c0 -6 -34 -10 -83 -10 -46 0 -120 -3 -163 -6 -57 -5 -76 -4 -69 4 6
7 64 13 145 15 74 1 143 4 153 5 9 1 17 -2 17 -8z m626 -56 c101 -26 191 -60
182 -69 -3 -3 -25 2 -49 11 -24 9 -111 34 -194 55 -109 29 -135 38 -94 35 31
-3 101 -17 155 -32z m-1846 11 c-27 -14 -36 -13 -25 4 3 6 16 11 28 11 21 -1
21 -1 -3 -15z m793 8 c-7 -2 -21 -2 -30 0 -10 3 -4 5 12 5 17 0 24 -2 18 -5z
m550 0 c-7 -2 -21 -2 -30 0 -10 3 -4 5 12 5 17 0 24 -2 18 -5z m-614 -57 c-10
-10 -79 -24 -79 -16 0 5 8 11 18 13 22 6 67 8 61 3z m8968 -85 c30 -28 30 -29
9 -35 -11 -3 -39 -6 -61 -5 l-40 0 31 13 c46 20 51 36 12 36 -25 0 -29 3 -18
10 24 15 35 12 67 -19z m-9167 -18 c-32 -41 -596 -627 -662 -689 -33 -30 -64
-54 -69 -54 -24 0 2 31 91 112 52 47 178 175 280 285 235 252 355 373 370 373
6 0 2 -12 -10 -27z m-815 -32 c-15 -14 -55 -23 -55 -13 0 15 12 22 39 22 15 0
21 -4 16 -9z m-110 -47 c-19 -20 -31 -25 -62 -22 l-38 3 55 22 c71 28 74 28
45 -3z m9988 9 c-7 -2 -19 -2 -25 0 -7 3 -2 5 12 5 14 0 19 -2 13 -5z m117
-12 c0 -17 -12 -41 -21 -41 -10 0 -12 33 -2 43 9 10 23 9 23 -2z m120 -27 c0
-4 -9 -22 -21 -40 -25 -42 -54 -47 -45 -8 7 25 5 26 -21 20 -22 -6 -25 -5 -16
5 6 6 26 13 44 15 18 2 35 6 37 9 7 7 22 6 22 -1z m-1000 -93 c27 -21 64 -41
83 -45 42 -8 68 -33 44 -42 -30 -11 -83 16 -137 71 -64 64 -60 71 10 16z m807
-4 c-18 -18 -36 -29 -41 -25 -6 4 -30 8 -55 8 -57 0 -49 8 36 30 93 25 96 24
60 -13z m-77 -102 c-6 -8 -21 -17 -32 -21 -13 -4 -18 -12 -15 -25 3 -12 0 -19
-8 -19 -7 0 -15 -6 -18 -12 -3 -10 -12 -9 -35 5 -17 9 -58 20 -91 24 -34 3
-63 9 -66 13 -2 3 36 12 85 19 49 7 102 16 117 21 15 5 39 9 52 9 19 1 21 -1
11 -14z m-397 -15 c8 0 8 -3 0 -11 -13 -13 -56 -2 -47 12 3 6 13 8 21 5 8 -3
20 -6 26 -6z m-9149 -126 c-77 -87 -360 -354 -375 -354 -7 0 0 14 17 31 41 45
406 389 411 389 3 0 -21 -30 -53 -66z m9382 56 c28 0 31 -3 32 -30 1 -29 -1
-30 -41 -30 -46 0 -216 26 -224 34 -3 2 46 3 108 0 l114 -5 -35 21 c-29 17
-31 20 -10 16 14 -3 39 -6 56 -6z m-9946 -20 c0 -13 -58 -42 -73 -37 -7 2 6
13 28 25 48 25 45 24 45 12z m9500 -13 c0 -17 -38 -53 -46 -44 -8 8 23 57 36
57 6 0 10 -6 10 -13z m110 -32 c0 -8 -13 -13 -34 -13 -18 0 -44 -6 -57 -13
-23 -12 -23 -11 -9 6 31 38 100 52 100 20z m-6270 -275 c0 -5 -22 -10 -50 -10
-27 0 -50 5 -50 10 0 6 23 10 50 10 28 0 50 -4 50 -10z m-3026 -44 c-7 -19
-96 -88 -103 -80 -7 7 86 94 100 94 4 0 6 -6 3 -14z m9220 -58 c-14 -29 -53
-96 -85 -149 -32 -53 -59 -103 -59 -111 0 -34 -113 -173 -259 -318 -157 -157
-260 -241 -361 -298 -64 -35 -230 -95 -230 -83 0 5 44 27 98 50 121 52 239
119 317 181 149 118 313 319 464 567 113 186 130 213 136 213 3 0 -6 -24 -21
-52z m-6077 -12 c14 -14 -10 -18 -66 -11 -81 9 -81 30 0 22 33 -3 63 -8 66
-11z m380 -55 c16 -25 16 -26 -3 -12 -37 28 -74 65 -74 73 0 14 59 -33 77 -61z
m-222 -81 c-4 -6 -58 -10 -133 -9 -80 0 -120 4 -107 9 29 12 248 12 240 0z
m-3705 -29 c0 -9 -108 -87 -136 -98 -35 -13 6 27 70 69 64 41 66 42 66 29z
m-230 -71 c0 -12 -35 -31 -44 -23 -8 9 14 33 30 33 8 0 14 -4 14 -10z m4405
-50 c16 -16 26 -32 24 -35 -8 -7 -47 23 -59 46 -16 28 2 23 35 -11z m-345 10
c-8 -5 -76 -9 -150 -9 -163 2 -122 16 50 18 78 0 110 -2 100 -9z m5810 -72
c-43 -76 -67 -109 -54 -73 14 35 86 156 91 151 2 -2 -14 -37 -37 -78z m-9955
52 c-3 -6 -21 -17 -38 -26 l-32 -17 24 27 c23 25 59 37 46 16z m9806 -17 c-13
-25 -71 -97 -71 -89 0 15 66 106 77 106 2 0 -1 -8 -6 -17z m-9921 -63 c0 -13
-50 -33 -59 -24 -7 7 28 34 46 34 7 0 13 -5 13 -10z m155 -11 c11 -16 -3 -23
-19 -10 -11 9 -15 7 -20 -14 -7 -26 -75 -82 -159 -130 -50 -28 -80 -26 -38 4
13 9 34 26 48 39 13 12 28 22 32 22 4 0 34 23 65 50 57 50 79 59 91 39z m85
-15 c0 -11 -34 -33 -50 -33 -10 0 -8 6 9 19 23 20 41 26 41 14z m4190 -43 l45
-8 -35 -6 c-79 -15 -320 -13 -320 3 0 8 37 11 225 17 22 1 60 -2 85 -6z m5479
-146 c-18 -25 -36 -45 -41 -45 -5 0 1 14 14 31 13 17 27 37 33 45 5 8 14 14
18 14 5 0 -6 -20 -24 -45z m-5329 -24 c54 -7 53 -7 -43 -14 -112 -9 -364 3
-287 14 61 8 263 9 330 0z m440 -50 c19 -16 32 -32 29 -35 -3 -3 -23 10 -45
29 -47 41 -33 47 16 6z m-193 -118 c6 -17 -162 -26 -322 -15 l-140 9 145 3
c80 1 174 6 210 10 82 9 102 8 107 -7z m-148 -92 c20 -13 -23 -24 -70 -19 -34
4 -34 4 -9 15 31 14 60 16 79 4z m4627 -36 c-11 -8 -31 -15 -45 -14 -26 1 -26
1 4 14 42 19 66 19 41 0z m-4316 -4 c0 -4 -24 -11 -52 -15 -81 -9 -578 -7
-578 3 0 5 91 9 202 10 110 0 203 3 206 6 9 9 222 5 222 -4z m4595 -16 c-51
-42 -285 -166 -285 -151 0 3 51 32 113 66 61 34 126 73 142 85 40 32 69 32 30
0z m86 -109 c-27 -59 -67 -134 -88 -169 -21 -34 -45 -75 -54 -91 -9 -17 -22
-32 -29 -34 -11 -4 138 294 193 387 41 68 27 10 -22 -93z m-4757 34 c-12 -12
-93 -27 -82 -15 4 4 22 11 40 15 47 11 53 11 42 0z m596 -10 c33 -17 60 -40
47 -40 -8 0 -97 52 -97 56 0 7 11 4 50 -16z m-741 -6 c8 -7 -50 -16 -66 -10
-15 6 -15 8 -3 16 13 8 57 4 69 -6z m-156 -11 c-7 -2 -19 -2 -25 0 -7 3 -2 5
12 5 14 0 19 -2 13 -5z m4408 -17 c-12 -13 -21 -29 -19 -37 2 -8 -12 -15 -43
-20 -25 -4 -65 -17 -88 -29 -24 -12 -45 -19 -47 -17 -9 9 189 125 215 127 3 0
-6 -11 -18 -24z m-3847 -6 c-5 -5 -106 -14 -224 -20 -251 -12 -587 -13 -576
-2 6 6 285 17 751 30 38 1 56 -1 49 -8z m4318 -32 c-18 -19 -22 -20 -22 -6 0
9 8 21 17 27 27 15 29 3 5 -21z m-3824 -8 c23 -10 42 -23 42 -29 0 -13 -85 16
-101 35 -17 20 6 18 59 -6z m3701 -57 c-47 -79 -129 -189 -164 -223 l-37 -35
26 49 c19 38 23 53 14 63 -9 11 -2 24 32 58 24 25 50 45 57 45 7 0 13 8 13 19
0 16 69 74 79 65 2 -1 -7 -20 -20 -41z m-169 33 c0 -3 -39 -28 -87 -57 -49
-29 -126 -78 -173 -110 -104 -70 -182 -111 -160 -84 22 27 178 129 298 196
100 55 122 65 122 55z m-7300 -61 c58 -9 130 -22 160 -30 129 -33 568 -60
1195 -75 443 -10 407 -6 788 -74 76 -13 144 -29 151 -36 14 -11 11 -45 -7 -67
-15 -20 -68 -16 -263 21 -260 50 -309 55 -703 66 -521 15 -749 28 -901 50
-187 28 -566 50 -873 50 -205 0 -286 -4 -403 -20 -80 -12 -178 -20 -217 -18
-69 3 -72 4 -72 27 0 49 137 92 375 117 171 18 627 11 770 -11z m3499 -25
c-30 -18 -259 -31 -620 -37 -201 -3 -387 -2 -415 3 -40 7 -18 10 126 15 96 4
279 8 405 9 127 1 268 5 315 9 128 12 208 12 189 1z m3356 -3 c-50 -35 -75
-49 -75 -44 0 9 72 57 85 57 5 0 1 -6 -10 -13z m-2784 -48 c23 -11 39 -23 36
-26 -6 -5 -97 33 -97 41 0 11 21 6 61 -15z m3159 3 c0 -14 -42 -47 -84 -65
-42 -20 -50 -18 -40 7 12 32 124 85 124 58z m-3315 -83 c175 -82 415 -186 589
-255 54 -21 94 -40 88 -42 -30 -10 -490 185 -757 321 -163 83 -115 69 80 -24z
m-5101 52 c7 -10 -22 -37 -30 -28 -9 8 3 37 15 37 5 0 12 -4 15 -9z m5518 -87
c191 -79 261 -116 123 -66 -171 62 -346 142 -312 142 3 0 88 -34 189 -76z
m2343 41 c-22 -14 -49 -25 -60 -25 -15 1 -10 7 20 25 22 14 49 25 60 25 15 -1
10 -7 -20 -25z m-2936 -25 c-126 -30 -1037 -57 -1053 -32 -3 5 171 12 387 17
216 4 428 11 472 15 44 3 114 7 155 7 61 1 68 -1 39 -7z m-1221 -6 c12 -4 22
-11 22 -17 0 -12 -101 -3 -127 12 -14 8 -8 10 32 11 28 0 60 -3 73 -6z m4043
-28 c-23 -28 -379 -172 -404 -163 -5 1 42 23 104 46 63 24 157 64 209 87 108
49 107 49 91 30z m399 -36 c-29 -37 -50 -50 -50 -33 0 10 62 73 73 73 5 0 -6
-18 -23 -40z m567 -48 c-8 -9 -17 -29 -21 -44 -10 -43 -248 -329 -359 -431
-198 -183 -429 -363 -578 -451 -46 -27 -122 -74 -169 -104 -243 -155 -913
-438 -1008 -425 -36 5 -112 -17 -276 -76 -32 -12 -63 -20 -69 -18 -11 3 45 29
293 137 661 287 1285 606 1328 679 7 11 81 72 165 134 83 62 186 142 227 177
115 98 345 326 414 410 53 65 61 72 64 52 2 -13 -3 -31 -11 -40z m-3481 -1
c-19 -31 -532 -71 -906 -71 -290 0 -780 23 -767 37 3 2 130 -1 283 -7 393 -16
1112 6 1319 40 70 11 77 11 71 1z m2634 -28 c-114 -68 -387 -171 -604 -228
-203 -52 -476 -82 -651 -70 -198 13 -175 23 53 24 259 1 376 12 522 47 154 38
468 145 595 203 123 56 153 64 85 24z m-1905 -19 c52 -13 95 -34 71 -34 -13 0
-171 41 -175 46 -10 9 49 3 104 -12z m1325 -43 c0 -9 -35 -22 -89 -34 -40 -9
-9 12 40 27 24 8 45 14 47 15 1 1 2 -3 2 -8z m-1069 -21 c110 -21 133 -30 77
-30 -36 0 -185 34 -196 44 -9 10 12 7 119 -14z m-674 -26 c7 -21 -552 -69
-902 -78 l-200 -5 235 14 c262 15 485 37 665 65 129 20 196 21 202 4z m1243
-34 c0 -5 -4 -10 -10 -10 -5 0 -10 5 -10 10 0 6 5 10 10 10 6 0 10 -4 10 -10z
m133 3 c-7 -2 -21 -2 -30 0 -10 3 -4 5 12 5 17 0 24 -2 18 -5z m-238 -13 c16
-7 13 -9 -15 -8 -19 0 -60 3 -90 8 l-55 7 70 1 c39 0 79 -3 90 -8z m1585 7 c0
-2 -17 -19 -37 -38 l-38 -34 34 38 c33 34 41 42 41 34z m-4165 -37 c6 -10
-213 -3 -224 6 -2 2 46 4 107 4 65 0 113 -4 117 -10z m4265 -8 c0 -15 -58 -64
-70 -60 -16 5 36 68 56 68 8 0 14 -4 14 -8z m-2606 -12 c-12 -5 -55 -11 -95
-14 -73 -5 -73 -5 -34 8 44 16 166 21 129 6z m141 -39 c-14 -13 -93 -26 -80
-13 11 11 38 19 70 21 12 1 15 -3 10 -8z m375 -1 c23 -7 22 -8 -10 -8 -19 0
-44 3 -55 8 -17 7 -15 9 10 8 17 0 41 -4 55 -8z m-567 -27 c-7 -2 -21 -2 -30
0 -10 3 -4 5 12 5 17 0 24 -2 18 -5z m2427 -6 c0 -2 -13 -16 -30 -32 -33 -32
-42 -17 -10 15 17 17 40 27 40 17z m-2156 -16 c3 -5 -1 -12 -10 -15 -20 -8
-219 -8 -212 0 15 15 214 28 222 15z m1945 -17 c-13 -15 -81 -54 -96 -54 -4 0
14 16 41 35 52 37 77 46 55 19z m-1513 -13 c15 -9 -6 -11 -103 -9 -87 2 -126
7 -135 17 -11 11 5 13 103 9 64 -3 124 -10 135 -17z m1684 -115 c0 -15 -21
-26 -48 -26 -13 0 -11 5 8 20 30 23 40 25 40 6z m-401 -46 c-13 -11 -71 -49
-129 -85 -58 -35 -132 -82 -165 -105 -68 -45 -102 -54 -66 -16 12 13 39 31 60
41 21 9 44 28 50 41 7 16 16 22 26 18 9 -4 23 1 33 9 9 9 28 20 42 25 14 6 56
31 95 55 70 46 98 55 54 17z m204 2 c-17 -15 -46 -36 -65 -46 -31 -19 -32 -19
-18 -1 20 25 90 75 104 75 6 -1 -3 -13 -21 -28z m-153 -102 c-14 -10 -27 -16
-30 -13 -6 6 30 33 44 33 6 0 0 -9 -14 -20z m-862 -385 c-11 -12 -294 -135
-308 -135 -21 1 27 26 165 87 106 46 159 64 143 48z m122 -150 c0 -7 -197
-105 -323 -161 -369 -165 -986 -392 -963 -355 4 5 43 22 89 37 257 84 721 287
764 333 11 12 85 40 188 71 92 28 182 57 199 65 34 15 46 17 46 10z m-391 -55
c-19 -11 -197 -60 -218 -60 -29 0 1 13 91 41 95 28 160 38 127 19z m-764 -29
c-13 -12 -105 -31 -105 -21 0 4 19 12 43 17 56 14 73 15 62 4z m144 -61 c-18
-11 -158 -50 -178 -50 -30 0 2 14 81 36 92 25 124 30 97 14z m467 -31 c-116
-61 -508 -225 -606 -254 -65 -19 9 18 160 80 173 71 248 106 290 135 33 23
137 59 170 59 22 0 21 -2 -14 -20z m-1056 -9 c-8 -5 -37 -9 -65 -9 -37 0 -45
3 -30 9 29 12 114 12 95 0z m-187 -17 c-7 -2 -21 -2 -30 0 -10 3 -4 5 12 5 17
0 24 -2 18 -5z m917 -243 c-40 -22 -54 -25 -45 -9 8 12 43 28 65 28 8 0 -1 -8
-20 -19z m-330 4 c0 -8 -71 -36 -78 -30 -3 3 10 12 29 20 37 17 49 19 49 10z
m-140 -54 c-8 -5 -24 -10 -35 -10 -17 0 -17 2 -5 10 8 5 24 10 35 10 17 0 17
-2 5 -10z m319 -5 c-35 -19 -177 -58 -192 -52 -14 5 169 66 198 66 17 0 16 -2
-6 -14z m-423 -24 c-7 -11 -106 -34 -114 -26 -5 5 5 9 58 24 47 12 62 13 56 2z
m-168 -46 c-3 -3 -23 -8 -44 -10 l-39 -5 40 14 c38 13 55 13 43 1z m68 -34
c-3 -5 -36 -16 -73 -25 -74 -18 -206 -36 -197 -27 7 8 223 59 252 60 13 1 21
-3 18 -8z m-371 -71 c3 -5 -3 -10 -15 -10 -12 0 -18 5 -15 10 3 6 10 10 15 10
5 0 12 -4 15 -10z m-290 -29 c-14 -13 -165 -31 -250 -30 l-70 2 115 17 c133
20 219 25 205 11z"/>
<path d="M8924 8331 c7 -11 141 -20 186 -13 33 5 34 6 10 13 -36 10 -202 11
-196 0z"/>
<path d="M9310 8310 c8 -5 31 -10 50 -10 76 0 402 -43 539 -70 517 -103 902
-305 1345 -706 57 -52 107 -94 111 -94 26 0 -94 134 -190 213 -38 31 -99 82
-135 112 -355 300 -959 523 -1495 550 -60 3 -139 8 -175 10 -45 4 -60 2 -50
-5z"/>
<path d="M8928 8282 c-27 -2 -48 -7 -48 -11 0 -4 89 -11 198 -15 712 -24 1238
-151 1645 -397 112 -68 164 -85 104 -34 -128 111 -619 310 -911 370 -228 46
-816 98 -988 87z"/>
<path d="M8590 8254 c-47 -7 -90 -13 -96 -14 -5 0 -18 -6 -28 -13 -14 -10 29
-8 174 9 106 13 195 25 198 28 10 11 -163 4 -248 -10z"/>
<path d="M8952 8223 c-42 -8 -11 -23 49 -23 63 0 79 13 28 24 -33 6 -39 6 -77
-1z"/>
<path d="M8610 8199 c-122 -13 -144 -31 -30 -24 114 6 170 15 170 26 0 10 -33
10 -140 -2z"/>
<path d="M9242 8206 c9 -10 260 -36 338 -35 l65 1 -60 13 c-66 15 -354 32
-343 21z"/>
<path d="M8195 8166 c-127 -33 -236 -79 -222 -92 5 -6 300 95 311 106 13 13
18 13 -89 -14z"/>
<path d="M8318 8144 c-57 -17 -77 -39 -27 -30 66 13 120 29 125 37 8 13 -45 9
-98 -7z"/>
<path d="M8710 8149 c-196 -13 -290 -33 -267 -56 3 -3 48 3 99 13 77 15 141
18 378 18 497 0 1029 -64 1284 -154 255 -90 551 -262 800 -464 65 -53 122 -96
127 -96 78 0 -409 353 -651 472 -428 210 -1098 311 -1770 267z"/>
<path d="M9711 8156 c3 -3 83 -25 179 -50 472 -121 826 -268 939 -390 14 -14
29 -26 34 -26 6 0 44 -26 85 -57 120 -93 152 -115 152 -104 0 11 -113 109
-169 147 -20 13 -63 47 -96 75 -113 94 -515 274 -780 348 -138 38 -363 76
-344 57z"/>
<path d="M9135 8081 c-13 -5 13 -10 75 -15 373 -27 882 -114 1023 -175 54 -23
77 -26 77 -10 0 5 -24 20 -52 33 -141 61 -492 126 -878 161 -182 16 -216 17
-245 6z"/>
<path d="M8617 8070 c-76 -7 -97 -14 -84 -26 6 -6 298 24 306 32 6 6 -133 2
-222 -6z"/>
<path d="M8065 8063 c-71 -16 -134 -53 -90 -53 18 0 125 47 125 54 0 6 -4 6
-35 -1z"/>
<path d="M8240 8060 c-12 -8 -12 -10 3 -16 22 -8 50 3 42 16 -8 12 -25 13 -45
0z"/>
<path d="M7765 8008 c-210 -90 -571 -283 -605 -323 -28 -34 2 -24 92 30 103
63 515 271 593 300 28 10 59 25 70 32 47 31 -34 10 -150 -39z"/>
<path d="M8380 8027 c-60 -20 -63 -22 -32 -25 36 -4 132 24 132 39 0 14 -29
10 -100 -14z"/>
<path d="M8144 8025 c-19 -14 -19 -14 2 -15 11 0 29 7 40 15 19 14 19 14 -2
15 -11 0 -29 -7 -40 -15z"/>
<path d="M9157 8014 c-11 -12 3 -24 28 -24 32 0 56 10 49 21 -6 10 -67 12 -77
3z"/>
<path d="M9300 8000 c0 -5 12 -10 26 -10 14 0 23 4 19 10 -3 6 -15 10 -26 10
-10 0 -19 -4 -19 -10z"/>
<path d="M9376 8001 c-8 -12 38 -28 100 -36 63 -8 82 10 27 24 -65 16 -122 21
-127 12z"/>
<path d="M8213 7984 c-43 -18 -42 -24 6 -24 24 0 48 8 62 20 l24 19 -30 0
c-16 0 -45 -7 -62 -15z"/>
<path d="M7830 7974 c-128 -43 -559 -275 -705 -378 -86 -62 -84 -78 3 -22 131
85 270 161 522 287 241 121 284 148 180 113z"/>
<path d="M9686 7951 c-11 -17 140 -51 224 -51 58 1 14 18 -91 35 -52 9 -101
18 -111 21 -9 3 -19 0 -22 -5z"/>
<path d="M7865 7931 c-3 -5 -1 -12 4 -15 12 -8 41 3 41 15 0 12 -37 12 -45 0z"/>
<path d="M7997 7913 c-25 -24 18 -32 49 -8 18 14 17 14 -12 15 -17 0 -34 -3
-37 -7z"/>
<path d="M10062 7874 c12 -11 218 -71 218 -63 0 15 -44 38 -105 53 -58 16
-124 21 -113 10z"/>
<path d="M7559 7780 c-19 -15 -21 -19 -7 -20 27 0 48 11 48 26 0 19 -14 17
-41 -6z"/>
<path d="M10389 7760 c13 -11 28 -20 35 -20 6 1 0 10 -13 20 -13 11 -28 20
-35 20 -6 -1 0 -10 13 -20z"/>
<path d="M10540 7761 c0 -9 61 -51 75 -51 4 0 2 7 -6 16 -17 20 -69 47 -69 35z"/>
<path d="M10485 7705 c31 -26 45 -31 45 -17 0 9 -53 42 -67 42 -4 -1 6 -12 22
-25z"/>
<path d="M7370 7688 c-42 -20 -59 -32 -48 -35 19 -5 118 45 118 59 0 10 6 12
-70 -24z"/>
<path d="M10650 7701 c0 -20 185 -151 213 -151 17 0 -16 31 -73 70 -99 67
-140 90 -140 81z"/>
<path d="M7590 7660 c-32 -28 -33 -30 -10 -24 33 8 70 32 70 44 0 19 -26 10
-60 -20z"/>
<path d="M10612 7628 c3 -7 18 -21 35 -31 43 -25 53 -3 11 23 -38 23 -51 25
-46 8z"/>
<path d="M6979 7553 c-32 -31 -57 -58 -55 -60 5 -6 140 96 144 108 2 5 -4 9
-13 9 -9 0 -43 -25 -76 -57z"/>
<path d="M7188 7574 c-21 -13 -38 -26 -38 -29 0 -14 30 -2 60 25 42 35 29 38
-22 4z"/>
<path d="M11190 7521 c0 -13 171 -193 178 -187 2 3 -28 44 -68 91 -70 83 -110
117 -110 96z"/>
<path d="M6952 7470 c-35 -32 -58 -39 -48 -15 11 30 -14 14 -29 -19 -17 -36
-116 -136 -134 -136 -6 0 -11 -7 -11 -15 0 -23 8 -19 79 40 99 81 197 174 186
174 -5 0 -25 -13 -43 -29z"/>
<path d="M10923 7406 c47 -44 67 -55 67 -38 0 12 -28 35 -75 61 l-40 23 48
-46z"/>
<path d="M6702 7338 c-30 -30 -5 -37 29 -8 23 19 23 19 4 20 -12 0 -26 -5 -33
-12z"/>
<path d="M6826 7295 c-14 -13 -26 -29 -26 -36 0 -13 62 32 68 49 6 20 -13 14
-42 -13z"/>
<path d="M11421 7240 c13 -22 33 -50 46 -62 22 -21 23 -21 23 -2 0 22 -65 104
-81 104 -6 0 0 -18 12 -40z"/>
<path d="M6663 7223 c-14 -5 -18 -33 -5 -33 4 0 13 5 20 12 22 22 14 33 -15
21z"/>
<path d="M11200 7173 c0 -14 105 -147 144 -182 34 -32 44 -21 18 21 -26 41
-162 177 -162 161z"/>
<path d="M6666 7071 c-11 -12 -16 -24 -12 -28 9 -9 39 22 34 37 -2 7 -10 4
-22 -9z"/>
<path d="M6422 6844 c-49 -43 -63 -64 -43 -64 12 0 111 90 111 101 0 17 -16 9
-68 -37z"/>
<path d="M6195 6786 c-16 -13 -24 -26 -18 -29 10 -7 60 39 52 48 -3 2 -18 -6
-34 -19z"/>
<path d="M8141 6769 c-15 -12 -39 -19 -68 -19 -40 0 -44 -2 -41 -22 3 -20 9
-23 46 -22 47 1 97 38 90 67 -3 13 -6 13 -27 -4z"/>
<path d="M7906 6694 c-27 -30 -47 -56 -45 -58 2 -1 26 -7 52 -14 79 -20 159
12 142 55 -6 17 -7 17 -20 0 -15 -21 -70 -26 -87 -9 -8 8 -7 19 2 42 20 49 7
44 -44 -16z"/>
<path d="M6201 6717 c-6 -8 -8 -17 -5 -20 10 -9 45 13 39 24 -9 13 -21 11 -34
-4z"/>
<path d="M6060 6645 c-36 -36 -58 -65 -49 -65 13 0 85 68 118 113 30 40 -9 13
-69 -48z"/>
<path d="M6140 6655 c-7 -9 -10 -18 -7 -22 8 -7 37 15 37 28 0 14 -16 11 -30
-6z"/>
<path d="M6176 6609 c-31 -24 -37 -56 -7 -40 21 12 56 61 43 61 -5 0 -21 -9
-36 -21z"/>
<path d="M7825 6585 c-3 -8 -7 -22 -10 -30 -2 -8 -16 -15 -29 -15 -25 0 -56
-32 -56 -57 0 -18 25 -16 40 2 6 7 33 17 58 21 94 13 152 54 77 54 -24 0 -37
6 -45 20 -13 24 -29 26 -35 5z"/>
<path d="M5925 6521 c-3 -5 -1 -12 5 -16 12 -7 30 2 30 16 0 12 -27 12 -35 0z"/>
<path d="M6034 6456 c-20 -20 -34 -40 -30 -43 4 -4 23 10 43 30 21 20 34 39
30 43 -3 4 -23 -10 -43 -30z"/>
<path d="M7690 6417 c-36 -12 -43 -29 -14 -35 23 -5 96 7 114 18 13 9 13 11 0
20 -20 13 -57 12 -100 -3z"/>
<path d="M6067 6406 c-18 -19 -22 -36 -8 -36 13 0 33 28 29 41 -3 8 -9 6 -21
-5z"/>
<path d="M5867 6383 c-14 -13 -6 -24 15 -21 27 4 36 28 11 28 -11 0 -23 -3
-26 -7z"/>
<path d="M7752 6335 c-12 -25 -25 -30 -102 -39 -51 -5 -96 -46 -84 -75 12 -30
9 -45 -11 -49 -23 -5 -45 -21 -45 -33 0 -5 22 -9 48 -9 43 0 50 -3 61 -27 8
-18 15 -23 22 -16 8 8 8 17 0 31 -16 31 -14 37 19 49 22 8 32 20 36 41 3 16
24 51 45 77 37 45 49 75 31 75 -5 0 -14 -11 -20 -25z m-72 -82 c-1 -49 -29
-66 -65 -39 -28 21 -12 46 30 46 19 0 35 -3 35 -7z"/>
<path d="M5786 6278 c-40 -46 -46 -64 -17 -49 22 12 71 68 71 82 0 19 -20 7
-54 -33z"/>
<path d="M7490 6068 c-5 -13 -20 -35 -32 -50 -29 -37 -16 -47 23 -19 l31 23
27 -26 c35 -33 41 -33 41 3 0 20 -10 40 -31 60 -36 37 -46 38 -59 9z"/>
<path d="M5516 5994 c-92 -81 -126 -124 -97 -124 23 0 201 184 189 196 -3 2
-44 -30 -92 -72z"/>
<path d="M7438 5943 c-36 -9 -17 -23 32 -23 52 0 67 13 28 24 -25 6 -34 6 -60
-1z"/>
<path d="M7377 5894 c-4 -4 -7 -15 -7 -24 0 -10 -7 -23 -15 -30 -8 -7 -12 -16
-9 -21 7 -12 71 -11 95 1 22 13 25 30 4 30 -8 0 -25 11 -38 25 -13 14 -26 22
-30 19z"/>
<path d="M5205 5760 c-36 -28 -79 -57 -94 -64 -15 -8 -33 -22 -40 -30 -8 -9
-21 -16 -29 -16 -11 0 -6 10 17 31 40 36 35 47 -11 23 -73 -37 -118 -77 -128
-113 -5 -19 -7 -37 -5 -40 15 -14 144 66 266 165 65 53 92 64 104 44 10 -15
35 -12 35 5 0 8 -9 15 -20 15 -13 0 -18 5 -14 15 11 26 -13 16 -81 -35z"/>
<path d="M7180 5784 c-185 -34 -290 -77 -290 -120 0 -18 52 -31 500 -129 217
-47 405 -90 418 -95 36 -16 26 -29 -15 -19 -295 71 -901 199 -943 199 -32 0
-24 -29 35 -125 30 -50 55 -95 55 -101 0 -7 -9 -14 -20 -17 -28 -7 -25 -24 8
-39 15 -7 27 -20 27 -28 0 -18 -53 -26 -68 -11 -7 7 -18 4 -35 -9 -14 -11 -33
-20 -43 -20 -28 0 -59 -36 -59 -69 0 -36 40 -71 81 -71 32 0 69 40 69 76 0 18
10 28 37 41 25 12 41 28 47 48 6 17 11 31 12 33 1 2 17 -12 36 -31 155 -162
530 -503 692 -630 277 -218 373 -265 736 -361 326 -86 593 -126 1110 -166 140
-11 302 -25 360 -31 68 -7 117 -8 140 -2 l35 9 5 150 c5 148 5 149 38 198 30
47 44 105 22 91 -22 -13 -20 25 4 89 14 36 23 72 20 79 -11 25 -1078 547
-1381 676 -255 108 -388 159 -628 241 -345 118 -460 140 -765 145 -118 2 -226
1 -240 -1z m131 -44 c10 -6 39 -14 64 -19 36 -7 45 -6 41 4 -7 19 26 25 129
25 335 0 1122 -306 2270 -883 178 -89 312 -163 303 -165 -25 -5 -186 68 -653
296 -404 196 -828 389 -1030 467 -148 57 -437 152 -674 220 -192 55 -278 70
-171 29 38 -15 54 -26 52 -37 -3 -19 17 -30 83 -46 28 -6 122 -34 210 -61 88
-27 179 -54 203 -60 49 -13 59 -35 10 -25 -17 4 -106 30 -197 57 -163 48 -432
119 -501 132 -24 4 -31 3 -24 -4 6 -6 111 -40 234 -76 124 -36 226 -67 229
-70 14 -14 -26 -6 -229 43 -359 87 -480 113 -555 118 l-70 5 75 -20 c41 -11
251 -62 465 -114 215 -52 402 -97 418 -101 17 -5 27 -3 27 3 0 6 -16 14 -35
18 -19 3 -38 10 -41 15 -11 19 50 8 159 -28 103 -34 109 -37 77 -43 l-35 -5
60 -22 c33 -12 165 -56 293 -98 127 -42 232 -79 232 -81 0 -9 -57 6 -240 63
-263 81 -838 232 -1170 307 -363 82 -353 79 -357 93 -5 13 84 43 127 43 14 0
66 -9 116 -20 97 -21 159 -26 149 -10 -3 5 -42 17 -87 27 -56 12 -75 19 -62
24 28 11 83 10 105 -1z m-141 -211 c85 -17 289 -59 452 -95 164 -35 301 -64
305 -64 4 1 -5 8 -20 16 -16 9 -27 17 -25 19 7 7 218 -48 218 -57 0 -5 -14 -7
-32 -3 -31 6 -32 5 -14 -10 22 -17 76 -21 76 -5 0 6 9 10 21 10 47 0 627 -175
616 -186 -3 -3 -33 2 -68 12 -124 32 -136 34 -115 19 25 -19 167 -70 301 -108
61 -17 103 -33 94 -35 -18 -3 -293 54 -453 94 -137 35 -185 43 -192 33 -5 -8
88 -39 381 -124 242 -71 656 -203 985 -313 348 -118 390 -133 390 -145 0 -19
-88 6 -477 134 -966 317 -1795 555 -1970 566 -46 3 -83 9 -83 14 0 17 -60 38
-246 89 -196 54 -235 68 -199 71 11 1 52 1 90 -1 109 -3 70 17 -86 46 -183 33
-229 44 -229 56 0 14 90 4 280 -33z m-145 -44 l30 -13 -30 -12 c-21 -9 -25
-14 -15 -18 59 -20 64 -23 51 -31 -7 -5 -9 -11 -5 -13 21 -12 152 -50 304 -89
91 -22 169 -44 173 -49 5 -4 -16 -5 -45 -2 -84 7 -47 -15 83 -49 118 -31 156
-49 103 -49 -54 -1 -4 -17 184 -59 101 -23 185 -41 188 -41 2 0 4 -6 4 -14 0
-8 -21 -22 -47 -31 -27 -9 -60 -23 -75 -31 -28 -15 -42 -7 -32 20 3 9 4 16 0
16 -3 0 -99 15 -213 34 -115 19 -239 37 -278 41 -77 8 -131 33 -179 84 -35 37
-39 36 124 15 119 -15 157 -14 109 4 -13 5 -90 22 -170 37 -155 29 -184 38
-160 54 16 10 53 7 153 -15 37 -8 82 -14 100 -13 l33 1 -31 13 c-40 18 -221
55 -266 55 -44 0 -70 20 -124 92 -65 89 -60 101 31 63z m1383 -111 c45 -13 85
-24 88 -24 3 0 3 -4 0 -9 -10 -16 -236 42 -236 61 0 10 43 1 148 -28z m-788
-134 c12 -8 12 -10 -5 -10 -11 0 -27 5 -35 10 -12 8 -12 10 5 10 11 0 27 -5
35 -10z m-775 -35 c0 -22 -31 -33 -47 -17 -17 17 -1 44 24 40 15 -2 23 -10 23
-23z m1975 -16 c12 -7 10 -8 -7 -9 -28 0 -53 10 -53 22 0 9 33 3 60 -13z
m-715 -85 c72 -20 135 -40 140 -46 13 -13 -20 -7 -207 39 -86 20 -145 39 -142
45 8 13 50 5 209 -38z m-536 -64 c135 -22 177 -37 71 -25 -36 3 -111 10 -167
13 -60 4 -107 12 -115 20 -19 19 65 16 211 -8z m593 0 c10 0 23 -10 29 -22 10
-18 8 -24 -7 -36 -35 -26 -166 0 -148 30 3 5 31 7 62 4 32 -3 48 -3 37 0 -40
10 -46 14 -40 25 4 6 17 8 29 5 11 -3 29 -6 38 -6z m1123 -20 c7 -12 -32 -12
-60 0 -16 7 -13 9 17 9 20 1 40 -3 43 -9z m-181 -20 c7 -7 -1 -10 -21 -10 -17
0 -37 8 -44 17 -13 15 -11 16 21 9 19 -3 39 -11 44 -16z m-1404 -26 c234 -32
252 -37 191 -54 -25 -6 -61 -10 -80 -7 -62 7 -325 57 -358 68 -48 15 -42 32
10 26 23 -4 130 -18 237 -33z m1701 5 c27 -12 49 -25 49 -30 0 -9 -64 12 -107
35 -44 24 -1 20 58 -5z m-1085 -10 c32 -6 64 -15 69 -21 10 -10 2 -9 -115 8
-22 3 -40 10 -40 15 0 12 13 11 86 -2z m-260 -13 c16 -8 72 -19 124 -26 242
-30 540 -86 540 -101 0 -14 -50 -11 -212 16 -187 30 -357 49 -365 42 -7 -8
-47 0 632 -122 733 -132 1233 -238 1260 -267 16 -17 -103 -3 -235 27 -253 58
-1058 214 -1490 289 -275 48 -410 77 -410 87 0 5 21 6 48 2 42 -6 46 -5 34 9
-11 14 -9 19 14 37 32 25 25 24 60 7z m1199 -5 c23 -11 32 -20 22 -20 -20 -1
-87 25 -87 33 0 11 25 5 65 -13z m-440 -20 c22 -11 33 -20 25 -20 -8 0 -33 8
-55 18 -22 11 -33 20 -25 20 8 0 33 -8 55 -18z m-1242 -8 c13 -3 15 -8 8 -17
-6 -7 -8 -16 -4 -19 10 -11 43 -8 43 3 0 11 98 14 123 4 9 -3 13 -13 10 -25
-3 -11 0 -19 6 -19 7 0 9 -4 6 -10 -9 -15 -141 -12 -178 4 -18 7 -50 33 -72
56 l-40 42 40 -7 c22 -4 48 -9 58 -12z m997 -3 c23 -7 22 -8 -10 -8 -19 0 -46
4 -60 8 -23 7 -22 8 10 8 19 0 46 -4 60 -8z m803 -7 c-7 -2 -19 -2 -25 0 -7 3
-2 5 12 5 14 0 19 -2 13 -5z m-1208 -103 l70 -19 -78 3 c-56 2 -83 8 -95 20
-15 15 -15 16 8 15 14 0 57 -9 95 -19z m-175 -35 c168 -20 323 -41 345 -48
l40 -12 -69 -3 c-38 -2 -91 2 -118 7 -84 18 -334 34 -365 23 l-28 -10 25 -5
c14 -3 77 -10 140 -17 360 -35 2043 -300 2068 -325 13 -12 -24 -25 -73 -24
-63 0 -184 21 -250 43 -95 33 -1015 179 -1418 226 -368 43 -557 84 -612 136
-29 27 -32 44 -7 44 9 0 154 -16 322 -35z m-24 -166 c80 -16 90 -29 22 -29
-58 0 -118 16 -118 31 0 12 24 11 96 -2z m187 -36 c-7 -2 -21 -2 -30 0 -10 3
-4 5 12 5 17 0 24 -2 18 -5z m30 -45 c42 -6 80 -14 83 -19 15 -24 -251 2 -283
28 -16 12 -10 13 52 8 39 -3 105 -11 148 -17z m618 -7 c20 -8 14 -10 -33 -10
-66 -1 -76 -14 -20 -29 l37 -10 -37 -1 c-28 -1 -43 5 -63 26 -14 15 -25 32
-25 37 0 11 106 1 141 -13z m-438 -18 c-7 -2 -21 -2 -30 0 -10 3 -4 5 12 5 17
0 24 -2 18 -5z m237 -3 l65 -7 -90 -1 c-49 0 -99 3 -110 8 -25 11 41 11 135 0z
m-437 -27 c-7 -2 -19 -2 -25 0 -7 3 -2 5 12 5 14 0 19 -2 13 -5z m129 -16
c-12 -6 -25 -7 -29 -3 -11 10 18 25 35 18 13 -4 11 -8 -6 -15z m746 14 c10 -6
7 -10 -11 -15 -33 -8 -65 3 -45 15 17 11 39 11 56 0z m117 -16 l30 -13 -32 -1
c-38 -1 -65 8 -57 20 7 12 23 11 59 -6z m-635 -20 c17 -20 50 -19 50 1 0 15
10 16 84 10 101 -7 136 -18 91 -26 -26 -5 -20 -8 35 -18 36 -6 160 -21 275
-32 187 -19 499 -58 835 -106 154 -22 160 -23 160 -34 0 -16 -94 -12 -233 10
-176 27 -457 62 -882 110 -493 55 -519 60 -501 89 10 16 72 13 86 -4z m-200
-5 c0 -13 -46 -24 -67 -16 -15 6 -15 8 -3 16 20 13 70 13 70 0z m390 -101
c187 -35 230 -48 160 -48 -74 0 -389 61 -420 80 -23 16 71 4 260 -32z m679
-85 c47 -10 37 -23 -11 -17 -54 7 -85 22 -47 23 15 0 41 -3 58 -6z m124 -21
c-7 -2 -21 -2 -30 0 -10 3 -4 5 12 5 17 0 24 -2 18 -5z m114 -9 c-3 -3 -12 -4
-19 -1 -8 3 -5 6 6 6 11 1 17 -2 13 -5z"/>
<path d="M7476 5700 c6 -6 31 -14 55 -17 34 -4 41 -3 33 7 -6 6 -31 14 -55 17
-34 4 -41 3 -33 -7z"/>
<path d="M7330 5455 c7 -8 16 -15 21 -15 4 0 20 -5 36 -11 22 -8 24 -12 13
-20 -13 -8 -13 -10 0 -19 22 -14 46 -12 60 5 7 8 23 15 36 15 52 0 19 19 -68
39 -110 25 -114 25 -98 6z"/>
<path d="M7635 5385 c-14 -9 -33 -11 -68 -6 -66 11 -69 -5 -5 -23 29 -8 71
-20 93 -26 22 -7 101 -16 175 -20 74 -5 153 -12 175 -16 74 -12 23 13 -71 35
-109 25 -114 25 -114 6 0 -8 -1 -15 -2 -15 -2 0 -36 9 -76 19 -74 20 -100 31
-69 31 21 0 22 16 1 24 -19 7 -14 8 -39 -9z"/>
<path d="M8210 5291 c0 -5 17 -15 38 -21 20 -7 47 -19 60 -27 13 -8 31 -12 39
-9 9 4 31 1 49 -6 18 -6 37 -8 41 -4 15 14 -29 35 -117 55 -99 24 -110 25
-110 12z"/>
<path d="M7944 5265 c11 -8 34 -15 50 -15 l31 1 -25 14 c-14 8 -36 14 -50 14
-24 0 -24 0 -6 -14z"/>
<path d="M7500 5184 c0 -3 16 -12 35 -20 62 -26 119 -12 60 14 -26 12 -95 17
-95 6z"/>
<path d="M7280 5162 c0 -11 -3 -11 320 -68 371 -66 380 -68 387 -61 13 14 -12
22 -175 54 -276 55 -532 91 -532 75z"/>
<path d="M8622 4428 c3 -7 15 -14 29 -16 23 -2 23 -2 5 13 -24 18 -39 20 -34
3z"/>
<path d="M4878 5589 c-28 -16 -21 -30 7 -17 14 6 25 15 25 20 0 11 -11 10 -32
-3z"/>
<path d="M4813 5503 c-20 -7 -15 -23 7 -23 11 0 20 4 20 9 0 13 -12 19 -27 14z"/>
<path d="M10354 5428 c-12 -19 -18 -158 -6 -158 15 0 23 27 29 103 4 45 2 67
-5 67 -6 0 -14 -5 -18 -12z"/>
<path d="M10390 5164 c1 -110 17 -281 29 -302 8 -14 10 -10 11 18 0 53 -29
352 -35 358 -3 3 -5 -30 -5 -74z"/>
<path d="M6650 5180 c0 -6 7 -22 16 -35 15 -24 12 -65 -6 -65 -5 0 -20 14 -33
31 -24 31 -26 31 -48 15 -13 -9 -33 -16 -44 -16 -11 0 -40 -14 -65 -30 -25
-16 -55 -30 -67 -30 -13 0 -32 -9 -43 -20 -15 -15 -33 -20 -72 -20 -39 0 -57
-5 -75 -22 -16 -15 -34 -21 -62 -20 -27 1 -47 -5 -67 -21 -21 -16 -43 -22 -84
-23 -30 -1 -80 -9 -110 -17 -30 -9 -118 -21 -195 -27 -77 -6 -193 -18 -259
-26 -74 -10 -134 -12 -160 -7 -41 7 -72 7 -113 -2 -16 -4 -23 -13 -23 -30 0
-39 -16 -38 -50 5 -24 30 -39 40 -61 40 -24 0 -29 -4 -29 -25 0 -18 11 -32 38
-49 46 -30 93 -43 208 -57 118 -14 107 -14 208 5 49 9 125 16 170 16 44 1 98
7 118 14 21 8 57 11 80 9 54 -6 111 28 116 69 2 15 10 32 18 39 12 10 19 7 40
-12 15 -14 39 -25 57 -25 18 -1 49 -5 69 -9 32 -6 40 -4 61 19 19 20 34 26 65
26 29 0 49 7 72 26 22 19 47 28 90 33 37 5 65 14 73 24 7 10 30 17 57 19 38 3
48 8 65 35 11 18 25 32 30 31 30 -2 47 4 65 22 24 24 27 82 4 104 -17 18 -54
22 -54 6z m-75 -130 c0 -20 -6 -26 -28 -28 -18 -2 -29 2 -33 12 -11 28 4 48
33 44 22 -2 28 -8 28 -28z m-137 -44 c2 -10 0 -22 -6 -28 -13 -13 -43 18 -35
38 7 20 37 13 41 -10z m-158 -61 c0 -18 -5 -25 -20 -25 -20 0 -28 28 -13 43
15 16 33 6 33 -18z m-125 -40 c0 -22 -31 -33 -47 -17 -17 17 -1 44 24 40 15
-2 23 -10 23 -23z m-285 -65 c0 -15 -7 -20 -25 -20 -41 0 -30 37 13 39 6 1 12
-8 12 -19z m-130 0 c20 -12 1 -45 -26 -45 -22 0 -32 34 -12 46 17 11 20 11 38
-1z m-114 -11 c7 -12 -15 -31 -31 -26 -5 2 -11 11 -13 20 -4 19 32 24 44 6z
m-100 -10 c9 -16 -20 -41 -39 -33 -17 6 -22 25 -10 37 10 11 41 8 49 -4z
m-276 -33 c0 -25 -15 -37 -37 -28 -14 4 -18 34 -6 45 3 4 15 7 25 7 12 0 18
-7 18 -24z m124 8 c20 -8 21 -28 2 -43 -18 -15 -46 -4 -46 18 0 29 14 37 44
25z"/>
<path d="M3727 5173 c-8 -14 12 -53 28 -53 18 0 20 31 3 48 -14 14 -25 15 -31
5z"/>
<path d="M10465 5020 c4 -152 16 -230 35 -230 12 0 13 -14 -6 164 -23 224 -35
250 -29 66z"/>
<path d="M2972 5061 c-16 -10 -4 -71 14 -71 20 0 29 49 13 65 -8 8 -19 11 -27
6z"/>
<path d="M10551 4843 c-1 -24 4 -43 9 -43 12 0 12 37 0 65 -7 15 -9 10 -9 -22z"/>
<path d="M3315 4631 c-3 -5 -1 -12 5 -16 12 -7 30 2 30 16 0 12 -27 12 -35 0z"/>
<path d="M3133 4623 c-22 -8 -14 -23 13 -23 15 0 24 5 22 12 -5 14 -18 18 -35
11z"/>
<path d="M3200 4610 c0 -12 27 -12 55 0 16 7 13 9 -17 9 -21 1 -38 -3 -38 -9z"/>
<path d="M3482 4603 c-23 -9 -1 -23 38 -23 46 0 72 9 64 21 -5 9 -80 11 -102
2z"/>
<path d="M3712 4598 c7 -19 38 -22 38 -4 0 10 -9 16 -21 16 -12 0 -19 -5 -17
-12z"/>
<path d="M3846 4601 c-8 -12 18 -21 59 -21 37 0 54 14 29 24 -24 9 -82 7 -88
-3z"/>
<path d="M3301 4581 c-34 -4 -56 -11 -59 -20 -4 -11 3 -13 28 -7 19 3 64 9
102 13 38 3 71 10 74 14 6 10 -57 9 -145 0z"/>
<path d="M4536 4440 c14 -14 62 -18 66 -5 2 6 -15 11 -37 13 -29 2 -37 0 -29
-8z"/>
<path d="M10625 4393 c23 -55 48 -96 63 -101 21 -7 13 22 -24 81 -40 65 -62
76 -39 20z"/>
<path d="M10125 4410 c-8 -13 4 -32 16 -25 12 8 12 35 0 35 -6 0 -13 -4 -16
-10z"/>
<path d="M4686 4402 c-7 -12 22 -37 53 -47 16 -5 22 -3 20 4 -6 18 -66 53 -73
43z"/>
<path d="M10770 4363 c0 -5 9 -36 20 -69 10 -34 22 -101 26 -148 10 -121 28
-111 22 12 -4 78 -10 110 -31 155 -23 51 -37 70 -37 50z"/>
<path d="M4849 4303 c84 -60 105 -73 119 -73 28 0 8 22 -55 59 -94 54 -133 63
-64 14z"/>
<path d="M10126 4332 c-6 -10 8 -120 17 -129 4 -3 7 26 7 65 0 64 -9 88 -24
64z"/>
<path d="M10603 4301 c4 -17 14 -47 23 -68 16 -35 18 -36 22 -14 4 28 -25 111
-40 111 -6 0 -8 -12 -5 -29z"/>
<path d="M10320 4290 c0 -8 14 -73 32 -145 33 -134 51 -151 24 -23 -8 40 -17
89 -21 109 -6 38 -34 86 -35 59z"/>
<path d="M10562 4219 c1 -12 9 -24 16 -27 9 -3 13 3 10 19 -1 12 -9 24 -16 27
-9 3 -13 -3 -10 -19z"/>
<path d="M5005 4135 c57 -52 85 -67 85 -45 0 5 -10 15 -22 21 -13 6 -42 27
-65 45 -65 53 -64 39 2 -21z"/>
<path d="M5090 4145 c14 -15 34 -32 45 -37 16 -9 16 -6 -5 17 -14 15 -34 32
-45 37 -16 9 -16 6 5 -17z"/>
<path d="M10186 4155 c-7 -19 10 -65 24 -65 15 0 12 56 -4 69 -11 9 -15 8 -20
-4z"/>
<path d="M5303 4085 c64 -59 86 -58 25 0 -26 25 -53 45 -60 45 -7 -1 9 -21 35
-45z"/>
<path d="M5110 4063 c0 -10 83 -93 93 -93 14 0 7 20 -15 40 -36 34 -78 62 -78
53z"/>
<path d="M11005 4049 c-8 -23 -1 -34 14 -24 13 8 15 45 2 45 -5 0 -13 -9 -16
-21z"/>
<path d="M11060 4011 c-5 -21 -28 -77 -50 -124 -43 -90 -51 -122 -25 -97 19
20 105 215 105 240 0 34 -19 22 -30 -19z"/>
<path d="M5240 4017 c0 -18 36 -51 44 -39 6 10 -21 52 -35 52 -5 0 -9 -6 -9
-13z"/>
<path d="M10797 4013 c-11 -10 -8 -43 3 -43 6 0 10 11 10 25 0 26 -2 29 -13
18z"/>
<path d="M10177 3994 c-15 -15 -6 -24 13 -14 16 9 20 8 20 -5 0 -8 5 -15 11
-15 6 0 9 8 7 18 -3 17 -38 29 -51 16z"/>
<path d="M11211 3909 c-31 -42 -39 -69 -22 -69 11 0 70 79 72 95 2 25 -23 12
-50 -26z"/>
<path d="M5300 3882 c0 -13 64 -72 78 -72 20 0 13 20 -17 51 -28 27 -61 39
-61 21z"/>
<path d="M5400 3871 c0 -9 33 -41 44 -41 4 0 2 8 -3 19 -11 20 -41 36 -41 22z"/>
<path d="M5577 3789 c18 -18 35 -30 39 -27 10 10 -5 27 -39 44 l-32 16 32 -33z"/>
<path d="M5520 3754 c25 -25 58 -55 74 -66 l28 -21 -11 21 c-13 24 -111 112
-125 112 -6 0 10 -21 34 -46z"/>
<path d="M11035 3790 c-7 -12 2 -30 16 -30 5 0 9 9 9 20 0 21 -15 27 -25 10z"/>
<path d="M5440 3771 c0 -13 29 -35 37 -28 7 8 -15 37 -28 37 -5 0 -9 -4 -9 -9z"/>
<path d="M10923 3723 c-3 -10 -15 -28 -25 -40 -11 -11 -18 -29 -16 -40 3 -14
12 -6 36 31 18 28 32 54 32 58 0 15 -21 8 -27 -9z"/>
<path d="M5700 3675 c24 -25 51 -45 60 -45 17 1 -75 90 -93 90 -6 0 9 -20 33
-45z"/>
<path d="M11053 3673 c-16 -21 -40 -56 -53 -77 -13 -22 -45 -65 -72 -97 -26
-32 -57 -75 -68 -96 -19 -35 -15 -32 40 25 52 54 140 177 180 252 20 37 4 33
-27 -7z"/>
<path d="M5540 3672 c0 -13 80 -85 87 -78 4 3 -2 15 -13 27 -27 30 -74 62 -74
51z"/>
<path d="M5854 3621 c16 -17 32 -29 34 -26 7 7 -18 34 -42 47 -16 8 -14 3 8
-21z"/>
<path d="M5703 3584 c48 -46 68 -53 48 -16 -10 18 -73 62 -89 62 -4 0 15 -21
41 -46z"/>
<path d="M5660 3550 c0 -11 33 -30 51 -30 8 0 5 7 -6 20 -19 21 -45 27 -45 10z"/>
<path d="M5796 3506 c7 -19 54 -50 62 -41 8 7 -43 55 -58 55 -5 0 -7 -6 -4
-14z"/>
<path d="M10963 3448 c-26 -35 -78 -99 -116 -143 -64 -74 -76 -110 -24 -68 61
47 207 232 207 260 0 26 -20 11 -67 -49z"/>
<path d="M11060 3495 c-7 -9 -10 -18 -7 -22 8 -7 37 15 37 28 0 14 -16 11 -30
-6z"/>
<path d="M10822 3465 c-24 -30 -28 -45 -12 -45 14 0 43 47 38 61 -2 7 -13 0
-26 -16z"/>
<path d="M6132 3448 c6 -17 56 -53 64 -45 8 7 -41 57 -56 57 -7 0 -10 -5 -8
-12z"/>
<path d="M11000 3408 c-17 -18 -39 -46 -47 -62 -8 -16 -39 -59 -69 -94 -51
-62 -66 -92 -45 -92 10 0 179 219 200 258 17 32 -2 27 -39 -10z"/>
<path d="M5830 3403 c0 -5 18 -27 40 -48 40 -39 49 -40 30 -5 -12 22 -70 66
-70 53z"/>
<path d="M6320 3371 c0 -12 89 -91 102 -91 14 0 -28 50 -64 77 -36 26 -38 27
-38 14z"/>
<path d="M10526 3364 c-4 -11 -1 -14 11 -12 9 2 18 9 21 16 6 18 -25 15 -32
-4z"/>
<path d="M6160 3321 c0 -15 28 -33 40 -26 8 5 8 11 -1 21 -13 15 -39 19 -39 5z"/>
<path d="M10460 3315 c-24 -13 -24 -14 -4 -15 12 0 27 7 34 15 16 19 3 19 -30
0z"/>
<path d="M6010 3304 c0 -20 66 -84 86 -84 22 0 17 11 -28 57 -46 46 -58 52
-58 27z"/>
<path d="M10667 3313 c-13 -12 -7 -23 13 -23 11 0 20 7 20 15 0 15 -21 21 -33
8z"/>
<path d="M5940 3292 c0 -15 24 -32 45 -32 19 0 18 2 -5 20 -27 21 -40 25 -40
12z"/>
<path d="M10330 3225 c-21 -25 -1 -31 23 -7 17 18 18 22 5 22 -8 0 -21 -7 -28
-15z"/>
<path d="M6180 3216 c0 -16 79 -80 88 -71 9 9 -26 50 -57 68 -27 16 -31 16
-31 3z"/>
<path d="M6280 3219 c0 -19 37 -55 47 -45 4 3 -5 19 -20 34 -20 19 -27 22 -27
11z"/>
<path d="M6190 3142 c0 -9 138 -147 181 -181 24 -19 39 -19 39 0 0 4 -37 38
-82 76 -128 107 -138 115 -138 105z"/>
<path d="M10693 3125 c-3 -9 -3 -18 0 -21 9 -9 27 6 27 22 0 19 -19 18 -27 -1z"/>
<path d="M6389 3110 c25 -22 41 -26 41 -10 0 11 -33 30 -52 30 -7 -1 -3 -9 11
-20z"/>
<path d="M6490 3122 c0 -11 39 -46 67 -61 45 -23 46 -9 3 29 -43 38 -70 50
-70 32z"/>
<path d="M10527 3089 c-52 -37 -70 -59 -49 -59 16 0 92 55 108 78 23 33 4 27
-59 -19z"/>
<path d="M10780 3115 c-7 -8 -18 -15 -24 -15 -7 0 -32 -20 -56 -46 -25 -25
-78 -71 -117 -102 -40 -31 -73 -60 -73 -65 0 -27 252 161 282 211 20 32 11 45
-12 17z"/>
<path d="M6306 3105 c4 -8 12 -15 20 -15 8 0 11 6 8 15 -4 8 -12 15 -20 15 -8
0 -11 -6 -8 -15z"/>
<path d="M10543 3011 c-87 -59 -136 -101 -115 -101 13 0 145 89 192 129 58 50
17 35 -77 -28z"/>
<path d="M10908 3001 c-29 -27 -60 -61 -68 -76 -13 -24 -102 -88 -237 -169
-34 -21 -43 -31 -31 -34 29 -6 153 67 236 138 96 83 185 190 158 190 -3 0 -28
-22 -58 -49z"/>
<path d="M6620 3022 c0 -10 33 -42 43 -42 12 0 7 18 -9 34 -17 17 -34 21 -34
8z"/>
<path d="M10747 3005 c-39 -27 -48 -45 -22 -45 21 0 95 69 75 70 -9 0 -32 -11
-53 -25z"/>
<path d="M10278 2998 c-24 -8 -41 -38 -22 -38 12 0 64 34 64 42 0 10 -7 9 -42
-4z"/>
<path d="M10384 2985 c-38 -23 -65 -55 -46 -55 12 0 99 56 106 69 12 19 -17
12 -60 -14z"/>
<path d="M6540 2992 c0 -9 93 -93 154 -140 27 -21 46 -21 46 -1 0 5 -37 36
-81 69 -93 69 -119 85 -119 72z"/>
<path d="M6452 2978 c5 -15 50 -39 58 -32 6 7 -38 44 -52 44 -5 0 -8 -6 -6
-12z"/>
<path d="M10014 2919 l-19 -22 33 17 c34 18 40 26 19 26 -8 0 -22 -10 -33 -21z"/>
<path d="M10734 2907 c-21 -19 -75 -58 -119 -88 -43 -30 -84 -57 -89 -61 -6
-4 -8 -10 -5 -13 4 -3 60 30 125 74 131 88 154 105 154 115 0 15 -30 3 -66
-27z"/>
<path d="M10905 2918 c-8 -13 -11 -24 -6 -26 16 -5 51 18 51 33 0 23 -27 18
-45 -7z"/>
<path d="M6460 2907 c34 -35 184 -157 194 -157 25 0 -126 129 -194 165 -13 7
-13 6 0 -8z"/>
<path d="M10135 2890 c-3 -5 -15 -10 -25 -10 -20 0 -80 -46 -80 -61 0 -5 17
-1 38 10 46 24 101 70 85 71 -6 0 -15 -4 -18 -10z"/>
<path d="M6600 2871 c0 -23 153 -146 268 -214 285 -169 562 -312 562 -289 0 4
-33 25 -72 47 -264 141 -613 355 -699 427 -46 39 -59 45 -59 29z"/>
<path d="M9895 2851 c-3 -5 -1 -12 4 -15 12 -8 41 3 41 15 0 12 -37 12 -45 0z"/>
<path d="M10417 2839 c-9 -6 -17 -18 -17 -27 0 -14 4 -13 22 6 24 24 22 36 -5
21z"/>
<path d="M6892 2807 c49 -44 147 -101 156 -92 10 10 -50 58 -118 94 -73 39
-85 39 -38 -2z"/>
<path d="M6760 2825 c0 -10 123 -95 138 -95 13 0 12 3 -3 20 -10 11 -24 20
-30 20 -7 0 -29 14 -50 30 -35 28 -55 37 -55 25z"/>
<path d="M6690 2731 c0 -12 64 -67 100 -86 17 -9 67 -40 113 -69 100 -65 297
-170 304 -163 6 7 -42 37 -177 110 -58 32 -145 87 -195 123 -101 73 -145 99
-145 85z"/>
<path d="M10213 2705 c-15 -13 -23 -25 -16 -25 7 0 25 11 40 25 15 13 23 25
16 25 -7 0 -25 -11 -40 -25z"/>
<path d="M6950 2703 c0 -14 180 -133 201 -133 25 0 -3 28 -72 72 -72 45 -129
73 -129 61z"/>
<path d="M9933 2684 c-36 -18 -43 -34 -15 -34 21 0 62 27 62 41 0 13 -10 11
-47 -7z"/>
<path d="M7090 2686 c0 -9 92 -66 107 -66 24 0 14 18 -22 39 -38 22 -85 37
-85 27z"/>
<path d="M10583 2683 c-7 -2 -13 -9 -13 -14 0 -14 26 -10 40 6 10 12 10 15 -1
14 -8 0 -20 -3 -26 -6z"/>
<path d="M10347 2649 c-26 -17 -47 -35 -47 -39 0 -15 55 9 91 40 46 40 16 39
-44 -1z"/>
<path d="M6691 2653 c17 -20 197 -138 334 -219 100 -58 480 -242 630 -304 121
-50 274 -100 325 -107 75 -9 37 12 -110 62 -330 113 -731 307 -1036 501 -130
83 -171 102 -143 67z"/>
<path d="M9985 2640 c-15 -17 -16 -20 -3 -20 9 0 26 9 39 20 23 19 23 19 3 20
-11 0 -29 -9 -39 -20z"/>
<path d="M9669 2605 c-42 -24 -88 -47 -102 -51 -27 -6 -43 -21 -34 -30 5 -6
140 61 202 100 69 44 14 28 -66 -19z"/>
<path d="M10384 2591 c-54 -27 -157 -86 -229 -131 -493 -313 -755 -429 -1088
-481 -43 -6 -80 -16 -83 -20 -29 -47 519 97 681 179 101 50 334 188 484 285
85 55 197 123 248 149 86 46 117 68 95 68 -5 0 -53 -22 -108 -49z"/>
<path d="M9985 2554 c-184 -110 -256 -156 -252 -160 8 -9 81 29 189 98 214
136 256 177 63 62z"/>
<path d="M7410 2591 c0 -12 52 -41 72 -41 18 0 -22 36 -49 45 -14 4 -23 2 -23
-4z"/>
<path d="M7570 2592 c0 -5 16 -16 35 -25 27 -13 35 -14 35 -3 0 7 -11 18 -25
24 -30 14 -45 15 -45 4z"/>
<path d="M10235 2578 c-17 -14 -62 -43 -101 -66 -71 -41 -102 -68 -91 -78 7
-7 135 68 162 96 12 11 26 20 32 20 15 0 36 27 31 41 -2 7 -15 2 -33 -13z"/>
<path d="M9415 2571 c-3 -5 -1 -12 5 -16 12 -7 30 2 30 16 0 12 -27 12 -35 0z"/>
<path d="M9865 2564 c-39 -20 -53 -34 -34 -34 15 0 79 36 79 45 0 9 -14 5 -45
-11z"/>
<path d="M7210 2541 c61 -49 467 -236 622 -286 45 -15 135 -45 198 -67 250
-87 458 -128 695 -135 268 -8 474 27 718 121 123 48 242 104 234 112 -2 3 -29
-4 -58 -15 -30 -11 -99 -36 -154 -56 -258 -95 -396 -125 -621 -132 -198 -7
-342 6 -494 42 -293 71 -619 189 -950 345 -91 42 -176 80 -190 84 l-25 7 25
-20z"/>
<path d="M10038 2515 c-53 -39 -75 -66 -32 -41 42 25 89 64 83 70 -2 2 -25
-11 -51 -29z"/>
<path d="M7800 2491 c0 -11 39 -25 47 -18 3 3 2 10 -2 16 -8 13 -45 15 -45 2z"/>
<path d="M7470 2485 c0 -16 345 -165 381 -165 23 1 23 1 5 15 -11 8 -27 15
-37 15 -9 0 -36 11 -60 24 -37 21 -271 116 -284 116 -3 0 -5 -2 -5 -5z"/>
<path d="M7880 2460 c0 -11 48 -25 56 -17 4 3 3 10 -1 16 -8 14 -55 14 -55 1z"/>
<path d="M9325 2435 c-54 -27 -63 -34 -37 -30 41 6 132 45 132 56 0 16 -25 9
-95 -26z"/>
<path d="M9520 2445 c-10 -13 -9 -15 9 -15 11 0 21 4 21 9 0 18 -18 21 -30 6z"/>
<path d="M7985 2431 c-7 -12 26 -31 52 -31 15 0 14 4 -7 20 -28 22 -36 24 -45
11z"/>
<path d="M8896 2419 c-22 -5 -42 -12 -45 -16 -7 -7 122 5 169 17 31 7 29 8
-25 8 -33 0 -78 -4 -99 -9z"/>
<path d="M7855 2394 c67 -32 105 -31 45 1 -25 13 -56 24 -70 24 -20 -1 -15 -5
25 -25z"/>
<path d="M8317 2404 c-11 -12 3 -24 29 -24 27 0 32 15 8 24 -20 8 -29 8 -37 0z"/>
<path d="M9926 2373 c-31 -21 -52 -39 -47 -41 11 -4 98 44 107 60 14 22 -7 16
-60 -19z"/>
<path d="M7244 2391 c9 -14 166 -99 228 -123 92 -35 48 4 -72 64 -123 61 -167
77 -156 59z"/>
<path d="M8125 2375 c17 -8 39 -14 50 -14 20 0 20 0 1 14 -11 8 -34 15 -50 14
l-31 -1 30 -13z"/>
<path d="M9768 2353 c-64 -33 -84 -53 -55 -53 19 0 130 65 135 78 6 18 -8 14
-80 -25z"/>
<path d="M9105 2373 c-37 -8 -75 -25 -75 -34 0 -11 -3 -12 58 6 29 9 52 20 52
25 0 10 -2 11 -35 3z"/>
<path d="M9315 2357 c-28 -21 -2 -29 39 -12 20 8 36 17 36 20 0 11 -57 4 -75
-8z"/>
<path d="M9580 2329 c-292 -124 -470 -174 -691 -194 -42 -4 -82 -11 -90 -17
-21 -14 198 -1 290 18 172 35 601 194 601 223 0 16 -5 14 -110 -30z"/>
<path d="M7976 2351 c5 -5 23 -12 39 -16 29 -6 29 -6 11 9 -21 17 -67 23 -50
7z"/>
<path d="M8205 2351 c-9 -16 33 -32 73 -29 l37 4 -37 17 c-42 19 -64 21 -73 8z"/>
<path d="M9480 2345 c0 -19 11 -19 36 0 18 14 18 14 -8 15 -18 0 -28 -5 -28
-15z"/>
<path d="M7485 2331 c3 -5 42 -24 88 -41 45 -17 116 -46 157 -65 117 -53 456
-150 719 -207 91 -19 404 -39 390 -24 -3 3 -72 13 -153 21 -323 32 -641 113
-1006 255 -178 70 -206 78 -195 61z"/>
<path d="M9168 2319 c-30 -17 -21 -31 15 -24 54 11 67 16 67 26 0 12 -60 11
-82 -2z"/>
<path d="M8130 2300 c33 -22 124 -50 132 -42 14 14 -12 29 -70 41 -65 14 -82
14 -62 1z"/>
<path d="M9669 2235 c-225 -110 -565 -215 -701 -215 -24 0 -50 -4 -58 -10 -29
-18 19 -23 98 -10 280 45 677 183 802 280 55 42 5 26 -141 -45z"/>
<path d="M7962 2289 c3 -8 21 -15 44 -17 47 -4 36 14 -15 24 -26 6 -33 4 -29
-7z"/>
<path d="M8920 2270 c-41 -4 -119 -8 -172 -9 -58 0 -98 -5 -98 -11 0 -22 361
-3 384 20 11 11 5 11 -114 0z"/>
<path d="M9260 2270 c-26 -16 -4 -20 36 -6 38 14 38 15 9 15 -16 0 -37 -3 -45
-9z"/>
<path d="M8305 2250 c-6 -10 11 -16 70 -26 28 -4 37 -3 30 4 -14 15 -94 32
-100 22z"/>
<path d="M7550 2241 c0 -13 124 -60 388 -147 216 -72 262 -83 262 -65 0 10 -4
12 -245 90 -104 34 -226 75 -270 90 -102 36 -135 44 -135 32z"/>
<path d="M8100 2240 c0 -21 325 -105 465 -120 208 -22 236 -3 35 24 -69 9
-174 28 -235 42 -229 54 -265 62 -265 54z"/>
<path d="M8466 2210 c12 -12 104 -30 148 -30 50 1 11 16 -71 29 -88 13 -89 13
-77 1z"/>
<path d="M8877 2200 c-74 -14 -50 -23 46 -17 120 8 167 27 62 26 -38 -1 -87
-5 -108 -9z"/>
<path d="M8090 1993 c56 -25 170 -53 214 -53 62 1 26 17 -102 45 -124 29 -165
31 -112 8z"/>
<path d="M8290 2001 c0 -18 224 -53 427 -67 100 -6 240 2 228 14 -3 3 -108 12
-233 18 -125 7 -267 19 -317 28 -106 19 -105 19 -105 7z"/>
<path d="M10963 5425 c0 -33 2 -45 4 -27 2 18 2 45 0 60 -2 15 -4 0 -4 -33z"/>
<path d="M11017 5463 c-11 -10 -8 -51 3 -58 6 -4 10 8 10 29 0 37 -2 41 -13
29z"/>
<path d="M11336 6293 c-2 -10 -4 -41 -4 -69 0 -49 1 -50 28 -46 20 3 32 -2 44
-19 18 -26 31 -20 21 10 -3 12 -22 28 -42 36 -34 14 -35 17 -30 55 5 40 -7 65
-17 33z"/>
<path d="M12000 5741 c-7 -17 -9 -38 -6 -48 6 -14 9 -15 21 -2 17 18 24 71 9
76 -6 2 -17 -10 -24 -26z"/>
<path d="M11580 5701 c0 -19 17 -38 25 -29 7 7 -7 48 -16 48 -5 0 -9 -9 -9
-19z"/>
<path d="M12074 5667 c17 -25 13 -37 -15 -37 -9 0 -19 -6 -22 -14 -3 -8 -16
-16 -29 -18 -15 -2 -24 -11 -26 -25 -4 -29 6 -29 49 0 37 25 82 84 76 101 -2
6 -14 12 -26 14 -22 3 -22 3 -7 -21z"/>
<path d="M11913 5574 c-32 -36 -35 -54 -8 -54 8 0 18 -8 24 -17 7 -14 11 -9
21 27 7 25 8 51 3 62 -7 16 -11 14 -40 -18z"/>
<path d="M11730 5485 c0 -14 4 -25 9 -25 12 0 23 29 15 41 -10 18 -24 9 -24
-16z"/>
<path d="M11547 5493 c-4 -3 -7 -17 -7 -30 0 -18 6 -23 24 -23 14 0 27 4 30 9
7 11 -38 53 -47 44z"/>
<path d="M12019 5454 c-9 -11 -23 -14 -45 -11 -39 7 -52 -6 -56 -53 -3 -37 17
-53 27 -21 5 18 9 19 32 8 22 -10 28 -8 44 12 11 13 19 36 19 52 0 33 -3 35
-21 13z"/>
<path d="M1366 6441 c-7 -10 30 -44 71 -65 55 -28 59 -18 11 29 -45 43 -71 55
-82 36z"/>
<path d="M12424 5548 c3 -13 6 -29 6 -35 0 -7 5 -13 10 -13 11 0 13 30 4 54
-9 25 -27 19 -20 -6z"/>
<path d="M12360 5543 c0 -11 6 -28 14 -39 13 -17 15 -18 21 -2 10 26 2 52 -18
56 -11 2 -17 -3 -17 -15z"/>
<path d="M12401 4991 c-27 -7 -41 -31 -18 -31 8 0 25 9 38 20 25 20 21 23 -20
11z"/>
<path d="M12280 4734 c0 -10 7 -14 22 -12 32 5 35 28 4 28 -17 0 -26 -5 -26
-16z"/>
<path d="M9468 942 c-477 -246 -523 -272 -485 -272 23 0 632 314 643 331 16
26 -15 15 -158 -59z"/>
<path d="M1263 2002 c-65 -23 -127 -65 -141 -96 -18 -40 -2 -37 59 11 40 31
78 51 120 62 33 9 60 21 60 26 -1 17 -44 16 -98 -3z"/>
<path d="M1050 1729 c-17 -30 -8 -155 14 -196 17 -35 54 -48 41 -15 -3 9 -12
63 -19 119 -7 57 -15 106 -19 109 -3 3 -11 -4 -17 -17z"/>
<path d="M1307 1668 c-36 -73 -121 -150 -197 -179 -58 -22 -107 -22 -340 0
-164 16 -296 -21 -347 -98 -48 -72 -20 -154 87 -255 85 -80 124 -93 222 -77
129 21 245 8 319 -36 56 -32 59 -48 17 -86 -44 -40 -58 -72 -58 -132 0 -200
274 -332 418 -201 51 46 69 102 81 254 12 158 55 212 168 212 43 0 58 -5 94
-32 49 -39 71 -77 99 -177 18 -63 29 -81 74 -126 79 -79 158 -95 251 -51 54
25 88 58 128 121 67 107 118 116 266 45 83 -39 103 -45 161 -45 59 0 70 3 115
36 66 47 80 51 118 35 31 -12 48 -37 76 -109 6 -15 16 -25 21 -22 29 18 -9
143 -51 165 -33 18 -103 6 -196 -34 -44 -20 -92 -36 -105 -36 -13 0 -61 18
-107 40 -122 59 -159 66 -212 42 -24 -10 -80 -52 -124 -92 -44 -40 -102 -84
-130 -96 -130 -61 -228 -2 -269 162 -27 107 -62 163 -124 201 -92 56 -208 4
-262 -119 -11 -26 -27 -96 -35 -161 -18 -146 -33 -183 -82 -204 -83 -34 -186
-15 -258 49 -77 68 -96 144 -52 209 25 37 18 36 165 23 88 -8 98 9 15 26 -76
16 -85 21 -173 103 -115 106 -157 120 -275 92 -122 -30 -202 -16 -274 46 -59
51 -91 106 -91 154 0 67 17 74 98 40 115 -48 261 -45 326 6 27 21 36 59 13 59
-7 0 -32 -14 -55 -31 -71 -52 -195 -50 -259 6 -23 19 -26 26 -15 37 19 19 165
23 312 8 145 -15 229 -5 315 36 96 45 172 147 163 220 -3 27 -5 25 -31 -28z"/>
<path d="M885 1591 c-8 -14 13 -91 26 -91 14 0 7 92 -8 97 -6 2 -14 -1 -18 -6z"/>
<path d="M1150 1435 c0 -9 21 -30 47 -48 108 -74 143 -118 143 -177 0 -54 -30
-100 -107 -163 -71 -58 -90 -87 -57 -87 43 0 145 94 178 164 35 75 11 177 -61
257 -53 59 -143 93 -143 54z"/>
</g>
</svg>
