<?xml version="1.0" encoding="utf-8"?>
<!-- Generator: Adobe Illustrator 28.2.0, SVG Export Plug-In . SVG Version: 6.00 Build 0)  -->
<svg version="1.1" id="Ebene_1" xmlns="http://www.w3.org/2000/svg" xmlns:xlink="http://www.w3.org/1999/xlink" x="0px" y="0px"
	 viewBox="0 0 292.4 127.6" style="enable-background:new 0 0 292.4 127.6;" xml:space="preserve">
<style type="text/css">
	.st0{clip-path:url(#SVGID_00000170969630887056552170000003087800140618096815_);}
	.st1{fill:#B9D2EA;}
	.st2{fill:#005C6D;}
	.st3{fill:#0581B8;}
</style>
<g>
	<g>
		<defs>
			<path id="SVGID_1_" d="M285.9-0.3H7c-3.6,0-6.5,2.9-6.5,6.5v114.5c0,3.6,2.9,6.5,6.5,6.5h278.9c3.6,0,6.5-2.9,6.5-6.5V6.2
				C292.4,2.6,289.5-0.3,285.9-0.3z"/>
		</defs>
		<use xlink:href="#SVGID_1_"  style="overflow:visible;fill:#FFFFFF;"/>
		<clipPath id="SVGID_00000099652457268210198440000017428830567016265879_">
			<use xlink:href="#SVGID_1_"  style="overflow:visible;"/>
		</clipPath>
		<g style="clip-path:url(#SVGID_00000099652457268210198440000017428830567016265879_);">
			<path class="st1" d="M0.5,75.2v15.2l21.1,15.2c4-7.1,7-14.7,8.9-22.9L0.5,75.2z"/>
			<path class="st1" d="M0.5,57.4v12.2l31,7.8c0.7-4.5,1.1-9.2,1.1-13.9c0-4.7-0.4-9.4-1.1-13.9L0.5,57.4z"/>
			<path class="st1" d="M0.5,97.2v33.3c7.1-5.7,13.2-12.5,18.2-20.2L0.5,97.2z"/>
			<path class="st1" d="M0.5,36.5v15.2l29.9-7.6c-1.9-8.1-4.9-15.8-8.9-22.9L0.5,36.5z"/>
			<path class="st1" d="M18.7,16.6C13.7,9,7.6,2.2,0.5-3.6v33.3L18.7,16.6z"/>
		</g>
	</g>
	<g>
		<g>
			<path d="M64.9,29.1l-5.3-8v8h-1.1v-9.9h1l5.3,7.9v-7.9h1.1v9.9H64.9z"/>
			<path d="M69.2,25.9c0,1.5,0.7,2.4,2,2.4c0.8,0,1.3-0.2,1.8-0.8l0.7,0.6c-0.7,0.7-1.3,1.1-2.5,1.1c-1.8,0-3-1.1-3-3.5
				c0-2.2,1.1-3.5,2.8-3.5c1.8,0,2.8,1.3,2.8,3.3v0.5H69.2z M72.6,24c-0.3-0.6-0.9-1-1.6-1c-0.7,0-1.3,0.4-1.6,1
				c-0.2,0.4-0.2,0.6-0.2,1.1h3.6C72.8,24.6,72.8,24.4,72.6,24z"/>
			<path d="M77.9,29.1c-1.2,0-1.8-0.8-1.8-1.8V23h-0.9v-0.8h0.9v-2.1h1v2.1h1.5V23h-1.5v4.2c0,0.6,0.3,1,0.9,1h0.5v0.9H77.9z"/>
			<path d="M87.1,29.1h-0.9l-1.8-5.3l-1.8,5.3h-0.9l-2.2-6.9h1.1l1.6,5.5l1.8-5.5h0.9l1.8,5.5l1.6-5.5h1.1L87.1,29.1z"/>
			<path d="M95,28.4c-0.5,0.5-1.1,0.8-2,0.8s-1.5-0.3-2-0.8c-0.7-0.7-0.8-1.7-0.8-2.7c0-1.1,0.1-2,0.8-2.7c0.5-0.5,1.1-0.8,2-0.8
				s1.5,0.3,2,0.8c0.7,0.7,0.8,1.7,0.8,2.7C95.8,26.7,95.7,27.6,95,28.4z M94.3,23.5C94,23.2,93.5,23,93,23c-0.5,0-0.9,0.2-1.2,0.5
				c-0.5,0.5-0.6,1.4-0.6,2.1c0,0.8,0.1,1.6,0.6,2.1c0.3,0.3,0.8,0.5,1.2,0.5c0.5,0,0.9-0.2,1.3-0.5c0.5-0.5,0.5-1.4,0.5-2.1
				C94.8,24.9,94.8,24,94.3,23.5z"/>
			<path d="M101.8,23.5c-0.4-0.4-0.7-0.5-1.2-0.5c-1,0-1.6,0.8-1.6,1.8v4.2h-1v-6.9h1V23c0.4-0.6,1.1-0.9,1.9-0.9
				c0.7,0,1.2,0.2,1.6,0.6L101.8,23.5z"/>
			<path d="M108.3,29.1l-2.2-3.5l-1.3,1.5v2h-1v-9.9h1v6.6l3.1-3.6h1.3l-2.3,2.6l2.7,4.2H108.3z"/>
			<path d="M119.4,28.5c-0.4,0.4-1,0.6-1.7,0.6c-0.8,0-1.4-0.2-1.9-0.9v3.9h-1v-9.9h1V23c0.6-0.7,1.2-0.9,1.9-0.9
				c0.7,0,1.3,0.2,1.7,0.6c0.7,0.7,0.8,1.8,0.8,2.9S120.1,27.8,119.4,28.5z M117.5,23c-1.5,0-1.7,1.3-1.7,2.6s0.2,2.6,1.7,2.6
				s1.7-1.3,1.7-2.6S119,23,117.5,23z"/>
			<path d="M126.2,29.1v-0.7c-0.6,0.6-1.1,0.7-2,0.7c-0.9,0-1.5-0.2-1.9-0.6c-0.3-0.3-0.5-0.8-0.5-1.4c0-1.2,0.8-2,2.4-2h2.1v-0.7
				c0-1-0.5-1.5-1.8-1.5c-0.9,0-1.3,0.2-1.7,0.8l-0.7-0.6c0.6-0.8,1.3-1,2.4-1c1.8,0,2.7,0.8,2.7,2.3v4.7H126.2z M126.2,25.9h-1.9
				c-1,0-1.5,0.4-1.5,1.2c0,0.8,0.5,1.2,1.6,1.2c0.6,0,1.1,0,1.5-0.5c0.2-0.2,0.3-0.6,0.3-1.2V25.9z"/>
			<path d="M133.5,23.5c-0.4-0.4-0.7-0.5-1.2-0.5c-1,0-1.6,0.8-1.6,1.8v4.2h-1v-6.9h1V23c0.4-0.6,1.1-0.9,1.9-0.9
				c0.7,0,1.2,0.2,1.6,0.6L133.5,23.5z"/>
			<path d="M137.5,29.1c-1.2,0-1.8-0.8-1.8-1.8V23h-0.9v-0.8h0.9v-2.1h1v2.1h1.5V23h-1.5v4.2c0,0.6,0.3,1,0.9,1h0.5v0.9H137.5z"/>
			<path d="M144.5,29.1v-4.2c0-1.2-0.7-1.8-1.7-1.8c-1,0-1.7,0.6-1.7,1.8v4.2h-1v-6.9h1V23c0.5-0.6,1.2-0.8,1.9-0.8
				c0.7,0,1.3,0.2,1.8,0.6c0.5,0.5,0.7,1.1,0.7,1.9v4.4H144.5z"/>
			<path d="M148.6,25.9c0,1.5,0.7,2.4,2,2.4c0.8,0,1.3-0.2,1.8-0.8l0.7,0.6c-0.7,0.7-1.3,1.1-2.5,1.1c-1.8,0-3-1.1-3-3.5
				c0-2.2,1.1-3.5,2.8-3.5c1.8,0,2.8,1.3,2.8,3.3v0.5H148.6z M152,24c-0.3-0.6-0.9-1-1.6-1c-0.7,0-1.3,0.4-1.6,1
				c-0.2,0.4-0.2,0.6-0.2,1.1h3.6C152.2,24.6,152.2,24.4,152,24z"/>
			<path d="M159.2,23.5c-0.4-0.4-0.7-0.5-1.2-0.5c-1,0-1.6,0.8-1.6,1.8v4.2h-1v-6.9h1V23c0.4-0.6,1.1-0.9,1.9-0.9
				c0.7,0,1.2,0.2,1.6,0.6L159.2,23.5z"/>
			<path d="M169.1,28.4c-0.5,0.5-1.1,0.8-2,0.8s-1.5-0.3-2-0.8c-0.7-0.7-0.8-1.7-0.8-2.7c0-1.1,0.1-2,0.8-2.7c0.5-0.5,1.1-0.8,2-0.8
				s1.5,0.3,2,0.8c0.7,0.7,0.8,1.7,0.8,2.7C169.9,26.7,169.8,27.6,169.1,28.4z M168.4,23.5c-0.3-0.3-0.8-0.5-1.3-0.5
				c-0.5,0-0.9,0.2-1.2,0.5c-0.5,0.5-0.6,1.4-0.6,2.1c0,0.8,0.1,1.6,0.6,2.1c0.3,0.3,0.8,0.5,1.2,0.5c0.5,0,0.9-0.2,1.3-0.5
				c0.5-0.5,0.5-1.4,0.5-2.1C168.9,24.9,168.9,24,168.4,23.5z"/>
			<path d="M173.3,23v6h-1v-6h-0.9v-0.8h0.9v-1.3c0-1,0.6-1.8,1.7-1.8h0.7V20h-0.5c-0.6,0-0.9,0.4-0.9,1v1.3h1.5V23H173.3z"/>
			<path d="M181.8,29.1c-1.2,0-1.8-0.8-1.8-1.8V23h-0.9v-0.8h0.9v-2.1h1v2.1h1.5V23h-1.5v4.2c0,0.6,0.3,1,0.9,1h0.5v0.9H181.8z"/>
			<path d="M188.9,29.1v-4.2c0-1.2-0.6-1.8-1.7-1.8c-1,0-1.7,0.6-1.7,1.8v4.2h-1v-9.9h1V23c0.5-0.6,1.2-0.8,1.9-0.8
				c1.5,0,2.5,1,2.5,2.5v4.4H188.9z"/>
			<path d="M193,25.9c0,1.5,0.7,2.4,2,2.4c0.8,0,1.3-0.2,1.8-0.8l0.7,0.6c-0.7,0.7-1.3,1.1-2.5,1.1c-1.8,0-3-1.1-3-3.5
				c0-2.2,1.1-3.5,2.8-3.5c1.8,0,2.8,1.3,2.8,3.3v0.5H193z M196.4,24c-0.3-0.6-0.9-1-1.6-1c-0.7,0-1.3,0.4-1.6,1
				c-0.2,0.4-0.2,0.6-0.2,1.1h3.6C196.6,24.6,196.5,24.4,196.4,24z"/>
			<path class="st2" d="M66.6,50c-1.1,1.1-2.3,1.4-3.7,1.4c-1.5,0-2.6-0.5-3.6-1.4C58,48.6,58,46.8,58,44.9c0-1.9-0.1-3.7,1.3-5.1
				c0.9-0.9,2-1.4,3.6-1.4c3.3,0,4.7,2.2,5,4.3h-3.2c-0.3-1-0.8-1.4-1.8-1.4c-0.6,0-1,0.3-1.2,0.6c-0.3,0.4-0.5,0.8-0.5,3.2
				s0.2,2.8,0.5,3.2c0.2,0.3,0.7,0.5,1.2,0.5c0.7,0,1.1-0.2,1.4-0.5c0.4-0.4,0.5-0.9,0.5-1.4v-0.2h-1.9v-2.6h5v1.8
				C67.9,47.8,67.6,49,66.6,50z"/>
			<path class="st2" d="M72.4,47.4c0,0.8,0.6,1.5,1.7,1.5c1,0,1.5-0.3,2-0.8l1.8,1.8c-1,1-2,1.5-3.8,1.5c-2.2,0-4.6-0.8-4.6-5
				c0-3.2,1.8-5,4.4-5c2.8,0,4.4,2.1,4.4,4.6v1.3H72.4z M75.2,44.7c-0.2-0.4-0.6-0.8-1.3-0.8c-0.7,0-1.1,0.3-1.3,0.8
				c-0.1,0.3-0.2,0.5-0.2,0.8h2.9C75.3,45.2,75.3,44.9,75.2,44.7z"/>
			<path class="st2" d="M85.3,44.7c-0.3-0.3-0.6-0.5-1.1-0.5c-0.4,0-1.2,0.2-1.2,1.3v5.8h-3v-9.7H83v0.8c0.4-0.4,1.3-0.9,2.3-0.9
				c1,0,1.6,0.2,2.3,0.9L85.3,44.7z"/>
			<path class="st2" d="M99.4,51.3v-5.8c0-1.1-0.8-1.3-1.2-1.3c-0.4,0-1.2,0.2-1.2,1.3v5.8h-3v-5.8c0-1.1-0.8-1.3-1.2-1.3
				c-0.4,0-1.2,0.2-1.2,1.3v5.8h-3v-9.7h2.9v0.8c0.6-0.6,1.5-0.9,2.3-0.9c1,0,1.7,0.3,2.4,1c0.9-0.7,1.6-1,2.8-1
				c0.9,0,1.8,0.3,2.3,0.8c0.8,0.8,1.1,1.8,1.1,2.8v6.2H99.4z"/>
			<path class="st2" d="M109.2,51.3v-0.8c-0.6,0.6-1.1,0.9-2.2,0.9c-1,0-1.8-0.3-2.3-0.9c-0.6-0.6-0.9-1.4-0.9-2.3
				c0-1.5,1-2.8,3.3-2.8h2v-0.3c0-0.9-0.4-1.2-1.5-1.2c-0.8,0-1.1,0.2-1.6,0.7l-1.8-1.8c1-1,1.9-1.3,3.5-1.3c2.8,0,4.3,1.2,4.3,3.5
				v6.3H109.2z M109.2,47.4h-1.5c-0.6,0-0.9,0.3-0.9,0.8c0,0.4,0.3,0.8,1,0.8c0.6,0,0.9-0.1,1.2-0.4c0.2-0.2,0.3-0.5,0.3-1V47.4z"/>
			<path class="st2" d="M119.6,51.3v-5.8c0-1.1-0.8-1.3-1.2-1.3c-0.4,0-1.2,0.2-1.2,1.3v5.8h-3v-9.7h2.9v0.8
				c0.6-0.6,1.5-0.9,2.3-0.9c0.9,0,1.7,0.3,2.2,0.8c0.8,0.8,1,1.8,1,2.8v6.2H119.6z"/>
			<path class="st2" d="M133.4,51.4c-1.5,0-2.6-0.5-3.6-1.4c-1.4-1.4-1.3-3.2-1.3-5.1c0-1.9-0.1-3.7,1.3-5.1
				c0.9-0.9,2.1-1.4,3.6-1.4c2.4,0,4.4,1.4,4.9,4.2H135c-0.2-0.7-0.6-1.4-1.6-1.4c-0.6,0-1,0.2-1.2,0.5c-0.3,0.4-0.5,0.8-0.5,3.2
				s0.2,2.8,0.5,3.2c0.2,0.3,0.7,0.5,1.2,0.5c1,0,1.4-0.7,1.6-1.4h3.2C137.8,50.1,135.8,51.4,133.4,51.4z"/>
			<path class="st2" d="M146.7,50.2c-0.6,0.6-1.6,1.2-3.1,1.2s-2.6-0.6-3.1-1.2c-0.8-0.9-1.1-1.8-1.1-3.7c0-1.9,0.3-2.8,1.1-3.7
				c0.6-0.6,1.6-1.2,3.1-1.2s2.6,0.6,3.1,1.2c0.8,0.9,1.1,1.8,1.1,3.7C147.8,48.4,147.5,49.3,146.7,50.2z M144.4,44.4
				c-0.2-0.2-0.4-0.3-0.8-0.3s-0.6,0.1-0.8,0.3c-0.4,0.4-0.4,1.1-0.4,2s0.1,1.6,0.4,2c0.2,0.2,0.4,0.3,0.8,0.3s0.6-0.1,0.8-0.3
				c0.4-0.4,0.4-1.1,0.4-2S144.8,44.8,144.4,44.4z"/>
			<path class="st2" d="M160.4,51.3v-5.8c0-1.1-0.8-1.3-1.2-1.3c-0.4,0-1.2,0.2-1.2,1.3v5.8h-3v-5.8c0-1.1-0.8-1.3-1.2-1.3
				s-1.2,0.2-1.2,1.3v5.8h-3v-9.7h2.9v0.8c0.6-0.6,1.5-0.9,2.3-0.9c1,0,1.7,0.3,2.4,1c0.9-0.7,1.6-1,2.8-1c0.9,0,1.8,0.3,2.3,0.8
				c0.8,0.8,1.1,1.8,1.1,2.8v6.2H160.4z"/>
			<path class="st2" d="M176.2,51.3v-5.8c0-1.1-0.8-1.3-1.2-1.3c-0.4,0-1.2,0.2-1.2,1.3v5.8h-3v-5.8c0-1.1-0.8-1.3-1.2-1.3
				s-1.2,0.2-1.2,1.3v5.8h-3v-9.7h2.9v0.8c0.6-0.6,1.5-0.9,2.3-0.9c1,0,1.7,0.3,2.4,1c0.9-0.7,1.6-1,2.8-1c0.9,0,1.8,0.3,2.3,0.8
				c0.8,0.8,1.1,1.8,1.1,2.8v6.2H176.2z"/>
			<path class="st2" d="M181.4,40.6v-2.3h3v2.3H181.4z M181.4,51.3V42h3v9.4H181.4z"/>
			<path class="st2" d="M189.8,51.3c-2.2,0-3-1.5-3-2.9v-4.2h-0.9V42h0.9v-2.8h3V42h1.5v2.3h-1.5v4c0,0.4,0.2,0.6,0.6,0.6h0.9v2.5
				H189.8z"/>
			<path class="st2" d="M196.4,51.3c-2.2,0-3-1.5-3-2.9v-4.2h-0.9V42h0.9v-2.8h3V42h1.5v2.3h-1.5v4c0,0.4,0.2,0.6,0.6,0.6h0.9v2.5
				H196.4z"/>
			<path class="st2" d="M202.1,47.4c0,0.8,0.6,1.5,1.7,1.5c1,0,1.5-0.3,2-0.8l1.8,1.8c-1,1-2,1.5-3.8,1.5c-2.2,0-4.6-0.8-4.6-5
				c0-3.2,1.8-5,4.4-5c2.8,0,4.4,2.1,4.4,4.6v1.3H202.1z M204.9,44.7c-0.2-0.4-0.6-0.8-1.3-0.8s-1.1,0.3-1.3,0.8
				c-0.1,0.3-0.2,0.5-0.2,0.8h2.9C205,45.2,205,44.9,204.9,44.7z"/>
			<path class="st2" d="M212.3,47.4c0,0.8,0.6,1.5,1.7,1.5c1,0,1.5-0.3,2-0.8l1.8,1.8c-1,1-2,1.5-3.8,1.5c-2.2,0-4.6-0.8-4.6-5
				c0-3.2,1.8-5,4.4-5c2.8,0,4.4,2.1,4.4,4.6v1.3H212.3z M215,44.7c-0.2-0.4-0.6-0.8-1.3-0.8c-0.7,0-1.1,0.3-1.3,0.8
				c-0.1,0.3-0.2,0.5-0.2,0.8h2.9C215.2,45.2,215.1,44.9,215,44.7z"/>
			<path class="st2" d="M230.9,50.2c-0.6,0.6-1.6,1.2-3.1,1.2s-2.6-0.6-3.1-1.2c-0.8-0.9-1.1-1.8-1.1-3.7c0-1.9,0.3-2.8,1.1-3.7
				c0.6-0.6,1.6-1.2,3.1-1.2s2.6,0.6,3.1,1.2c0.8,0.9,1.1,1.8,1.1,3.7C232,48.4,231.7,49.3,230.9,50.2z M228.6,44.4
				c-0.2-0.2-0.4-0.3-0.8-0.3s-0.6,0.1-0.8,0.3c-0.4,0.4-0.4,1.1-0.4,2s0.1,1.6,0.4,2c0.2,0.2,0.4,0.3,0.8,0.3s0.6-0.1,0.8-0.3
				c0.4-0.4,0.4-1.1,0.4-2S229,44.8,228.6,44.4z"/>
			<path class="st2" d="M237.2,44.3v7.1h-3v-7.1h-0.9V42h0.9v-0.9c0-1.3,0.9-2.9,3-2.9h1.6v2.5h-1c-0.4,0-0.6,0.2-0.6,0.6V42h1.6
				v2.3H237.2z"/>
			<path class="st2" d="M247.6,51.3c-2.2,0-3-1.5-3-2.9v-4.2h-0.9V42h0.9v-2.8h3V42h1.5v2.3h-1.5v4c0,0.4,0.2,0.6,0.6,0.6h0.9v2.5
				H247.6z"/>
			<path class="st2" d="M256.2,51.3v-5.9c0-1-0.8-1.3-1.1-1.3c-0.4,0-1.1,0.2-1.1,1.3v5.9h-3V38.4h3v3.9c0.6-0.6,1.4-0.9,2.1-0.9
				c2.1,0,3.1,1.6,3.1,3.5v6.3H256.2z"/>
			<path class="st2" d="M263.8,47.4c0,0.8,0.6,1.5,1.7,1.5c1,0,1.5-0.3,2-0.8l1.8,1.8c-1,1-2,1.5-3.8,1.5c-2.2,0-4.6-0.8-4.6-5
				c0-3.2,1.8-5,4.4-5c2.8,0,4.4,2.1,4.4,4.6v1.3H263.8z M266.5,44.7c-0.2-0.4-0.6-0.8-1.3-0.8c-0.7,0-1.1,0.3-1.3,0.8
				c-0.1,0.3-0.2,0.5-0.2,0.8h2.9C266.7,45.2,266.7,44.9,266.5,44.7z"/>
			<path class="st2" d="M63.1,73.2c-2.7,0-4.9-1.8-4.9-4.6v-8.4h3.2v8.3c0,1.2,0.7,1.9,1.7,1.9c1,0,1.7-0.7,1.7-1.9v-8.3H68v8.4
				C68,71.4,65.8,73.2,63.1,73.2z"/>
			<path class="st2" d="M77.7,73.1l-4.1-6.5v6.5h-3.2V60.3h2.8l4.1,6.5v-6.5h3.2v12.9H77.7z"/>
			<path class="st2" d="M82.6,69.2v-2.8h5.9v2.8H82.6z"/>
			<path class="st2" d="M98.8,71.8c-0.9,0.9-2,1.4-3.6,1.4s-2.7-0.5-3.6-1.4c-1.4-1.4-1.3-3.2-1.3-5.1s-0.1-3.7,1.3-5.1
				c0.9-0.9,2-1.4,3.6-1.4s2.7,0.5,3.6,1.4c1.4,1.4,1.3,3.2,1.3,5.1S100.2,70.4,98.8,71.8z M96.5,63.5c-0.2-0.3-0.7-0.6-1.3-0.6
				s-1,0.3-1.3,0.6c-0.3,0.4-0.5,0.8-0.5,3.2s0.2,2.8,0.5,3.1c0.2,0.3,0.7,0.6,1.3,0.6s1-0.3,1.3-0.6c0.3-0.4,0.5-0.8,0.5-3.1
				S96.8,63.9,96.5,63.5z"/>
			<path class="st2" d="M106.1,73.2c-1.7,0-4.4-0.7-4.4-5s2.7-5,4.4-5c1.4,0,2.4,0.5,3.2,1.2l-2,2c-0.4-0.4-0.7-0.6-1.2-0.6
				c-0.4,0-0.7,0.1-0.9,0.4c-0.3,0.4-0.5,1-0.5,1.9s0.1,1.6,0.5,1.9c0.3,0.3,0.5,0.4,0.9,0.4c0.5,0,0.8-0.2,1.2-0.6l2,2
				C108.5,72.8,107.5,73.2,106.1,73.2z"/>
			<path class="st2" d="M112.9,69.2c0,0.8,0.6,1.5,1.7,1.5c1,0,1.5-0.3,2-0.8l1.8,1.8c-1,1-2,1.5-3.8,1.5c-2.2,0-4.6-0.8-4.6-5
				c0-3.2,1.8-5,4.4-5c2.8,0,4.4,2.1,4.4,4.6v1.3H112.9z M115.6,66.5c-0.2-0.4-0.6-0.8-1.3-0.8c-0.7,0-1.1,0.3-1.3,0.8
				c-0.1,0.3-0.2,0.5-0.2,0.8h2.9C115.8,67,115.8,66.8,115.6,66.5z"/>
			<path class="st2" d="M125.3,73.1v-0.8c-0.6,0.6-1.1,0.9-2.2,0.9c-1,0-1.8-0.3-2.3-0.9c-0.6-0.6-0.9-1.4-0.9-2.3
				c0-1.5,1-2.8,3.3-2.8h2V67c0-0.9-0.4-1.2-1.5-1.2c-0.8,0-1.1,0.2-1.6,0.7l-1.8-1.8c1-1,1.9-1.3,3.5-1.3c2.8,0,4.3,1.2,4.3,3.5
				v6.3H125.3z M125.2,69.2h-1.5c-0.6,0-0.9,0.3-0.9,0.8c0,0.4,0.3,0.8,1,0.8c0.6,0,0.9-0.1,1.2-0.4c0.2-0.2,0.3-0.5,0.3-1V69.2z"/>
			<path class="st2" d="M135.6,73.1v-5.8c0-1.1-0.8-1.3-1.2-1.3c-0.4,0-1.2,0.2-1.2,1.3v5.8h-3v-9.7h2.9v0.8
				c0.6-0.6,1.5-0.9,2.3-0.9c0.9,0,1.7,0.3,2.2,0.8c0.8,0.8,1,1.8,1,2.8v6.2H135.6z"/>
			<path class="st2" d="M153.2,71.9c-0.9,0.9-2.1,1.3-3.5,1.3h-4.8V60.3h4.8c1.3,0,2.6,0.4,3.5,1.3c1.5,1.5,1.3,3.1,1.3,5.2
				C154.5,68.7,154.7,70.4,153.2,71.9z M151,63.8c-0.3-0.4-0.7-0.7-1.5-0.7h-1.4v7.2h1.4c0.8,0,1.2-0.3,1.5-0.7
				c0.3-0.4,0.3-0.7,0.3-2.9C151.4,64.5,151.3,64.2,151,63.8z"/>
			<path class="st2" d="M159,69.2c0,0.8,0.6,1.5,1.7,1.5c1,0,1.5-0.3,2-0.8l1.8,1.8c-1,1-2,1.5-3.8,1.5c-2.2,0-4.6-0.8-4.6-5
				c0-3.2,1.8-5,4.4-5c2.8,0,4.4,2.1,4.4,4.6v1.3H159z M161.7,66.5c-0.2-0.4-0.6-0.8-1.3-0.8s-1.1,0.3-1.3,0.8
				c-0.1,0.3-0.2,0.5-0.2,0.8h2.9C161.9,67,161.9,66.8,161.7,66.5z"/>
			<path class="st2" d="M170.6,73.2c-1.7,0-4.4-0.7-4.4-5s2.7-5,4.4-5c1.4,0,2.4,0.5,3.2,1.2l-2,2c-0.4-0.4-0.7-0.6-1.2-0.6
				c-0.4,0-0.7,0.1-0.9,0.4c-0.3,0.4-0.5,1-0.5,1.9s0.1,1.6,0.5,1.9c0.3,0.3,0.5,0.4,0.9,0.4c0.5,0,0.8-0.2,1.2-0.6l2,2
				C173,72.8,172,73.2,170.6,73.2z"/>
			<path class="st2" d="M179.9,73.1v-0.8c-0.6,0.6-1.1,0.9-2.2,0.9c-1,0-1.8-0.3-2.3-0.9c-0.6-0.6-0.9-1.4-0.9-2.3
				c0-1.5,1-2.8,3.3-2.8h2V67c0-0.9-0.4-1.2-1.5-1.2c-0.8,0-1.1,0.2-1.6,0.7l-1.8-1.8c1-1,1.9-1.3,3.5-1.3c2.8,0,4.3,1.2,4.3,3.5
				v6.3H179.9z M179.8,69.2h-1.5c-0.6,0-0.9,0.3-0.9,0.8c0,0.4,0.3,0.8,1,0.8c0.6,0,0.9-0.1,1.2-0.4c0.2-0.2,0.3-0.5,0.3-1V69.2z"/>
			<path class="st2" d="M190.1,73.1v-0.8c-0.6,0.6-1.2,0.9-2.2,0.9c-0.9,0-1.8-0.3-2.4-0.9c-1-1-0.9-2.7-0.9-4.1s-0.1-3.1,0.9-4.1
				c0.6-0.6,1.4-0.9,2.4-0.9c1,0,1.6,0.3,2.2,0.8v-3.9h3v12.9H190.1z M188.7,66c-1.1,0-1.2,0.9-1.2,2.3c0,1.4,0.1,2.3,1.2,2.3
				c1.1,0,1.2-0.9,1.2-2.3C190,66.9,189.8,66,188.7,66z"/>
			<path class="st2" d="M197.7,69.2c0,0.8,0.6,1.5,1.7,1.5c1,0,1.5-0.3,2-0.8l1.8,1.8c-1,1-2,1.5-3.8,1.5c-2.2,0-4.6-0.8-4.6-5
				c0-3.2,1.8-5,4.4-5c2.8,0,4.4,2.1,4.4,4.6v1.3H197.7z M200.4,66.5c-0.2-0.4-0.6-0.8-1.3-0.8c-0.7,0-1.1,0.3-1.3,0.8
				c-0.1,0.3-0.2,0.5-0.2,0.8h2.9C200.6,67,200.5,66.8,200.4,66.5z"/>
			<path class="st2" d="M211.8,74.8c-0.6-0.6-1.3-1.3-1.8-2c-0.5-0.8-0.5-1.7-0.5-2.6v-7c0-0.9,0.1-1.8,0.5-2.6
				c0.5-0.8,1.2-1.4,1.8-2l2,2c-0.5,0.5-0.7,0.7-1,1.2c-0.2,0.3-0.3,0.8-0.3,1.6v6.8c0,0.7,0.1,1.2,0.3,1.6c0.3,0.6,0.6,0.8,1,1.2
				L211.8,74.8z"/>
			<path class="st2" d="M224.1,71.8c-0.9,0.9-2,1.4-3.6,1.4s-2.7-0.5-3.6-1.4c-1.4-1.4-1.3-3.2-1.3-5.1s-0.1-3.7,1.3-5.1
				c0.9-0.9,2-1.4,3.6-1.4s2.7,0.5,3.6,1.4c1.4,1.4,1.3,3.2,1.3,5.1S225.4,70.4,224.1,71.8z M221.7,63.5c-0.2-0.3-0.7-0.6-1.3-0.6
				s-1,0.3-1.3,0.6c-0.3,0.4-0.5,0.8-0.5,3.2s0.2,2.8,0.5,3.1c0.2,0.3,0.7,0.6,1.3,0.6s1-0.3,1.3-0.6c0.3-0.4,0.5-0.8,0.5-3.1
				S222,63.9,221.7,63.5z"/>
			<path class="st2" d="M235.8,71.9c-0.9,0.9-2.1,1.3-3.5,1.3h-4.8V60.3h4.8c1.3,0,2.6,0.4,3.5,1.3c1.5,1.5,1.3,3.1,1.3,5.2
				C237.2,68.7,237.3,70.4,235.8,71.9z M233.6,63.8c-0.3-0.4-0.7-0.7-1.5-0.7h-1.4v7.2h1.4c0.8,0,1.2-0.3,1.5-0.7
				c0.3-0.4,0.3-0.7,0.3-2.9C234,64.5,233.9,64.2,233.6,63.8z"/>
			<path class="st2" d="M246.5,73.1l-3-5.3l-1.1,1.2v4h-3.1V60.3h3.1v4.6l3.7-4.6h3.9l-4.4,5.2l4.5,7.7H246.5z"/>
			<path class="st2" d="M254.9,72.8c-0.5,0.8-1.2,1.4-1.8,2l-2-2c0.5-0.5,0.7-0.7,1-1.2c0.2-0.3,0.3-0.8,0.3-1.6v-6.8
				c0-0.7-0.1-1.2-0.3-1.6c-0.3-0.6-0.6-0.8-1-1.2l2-2c0.6,0.6,1.3,1.3,1.8,2c0.5,0.8,0.5,1.7,0.5,2.6v7
				C255.4,71.1,255.3,72,254.9,72.8z"/>
		</g>
		<g>
			<path class="st3" d="M56.1,106.3v-2.9l8.6-10.5c0.9-1,1.2-1.9,1.2-3c0-2-1.2-3.4-3.3-3.4c-1.7,0-3.3,0.9-3.3,3.5h-3.2
				c0-3.8,2.7-6.3,6.5-6.3c3.8,0,6.5,2.4,6.5,6.3c0,2-0.7,3.2-2.1,4.9l-7,8.6h9.1v2.9H56.1z"/>
			<path class="st3" d="M78.7,106.5c-3.6,0-6.5-2.4-6.5-6.4v-10c0-4,2.9-6.4,6.5-6.4c3.6,0,6.5,2.4,6.5,6.4v10
				C85.2,104,82.3,106.5,78.7,106.5z M82,90.2c0-2.2-1.2-3.7-3.3-3.7c-2,0-3.2,1.5-3.2,3.7v9.8c0,2.2,1.2,3.7,3.2,3.7
				c2,0,3.3-1.5,3.3-3.7V90.2z"/>
			<path class="st3" d="M88.5,106.3v-2.9l8.6-10.5c0.9-1,1.2-1.9,1.2-3c0-2-1.2-3.4-3.3-3.4c-1.7,0-3.3,0.9-3.3,3.5h-3.2
				c0-3.8,2.7-6.3,6.5-6.3c3.8,0,6.5,2.4,6.5,6.3c0,2-0.7,3.2-2.1,4.9l-7,8.6h9.1v2.9H88.5z"/>
			<path class="st3" d="M110.7,106.3V87.3l-4.4,3.8v-3.6l4.4-3.8h3.2v22.4H110.7z"/>
			<path class="st3" d="M119.8,99v-3h13.6v3H119.8z"/>
			<path class="st3" d="M137,106.3v-2.9l8.6-10.5c0.9-1,1.2-1.9,1.2-3c0-2-1.2-3.4-3.3-3.4c-1.7,0-3.3,0.9-3.3,3.5H137
				c0-3.8,2.7-6.3,6.5-6.3c3.8,0,6.5,2.4,6.5,6.3c0,2-0.7,3.2-2.1,4.9l-7,8.6h9.1v2.9H137z"/>
			<path class="st3" d="M159.6,106.5c-3.6,0-6.5-2.4-6.5-6.4v-10c0-4,2.9-6.4,6.5-6.4s6.5,2.4,6.5,6.4v10
				C166.1,104,163.2,106.5,159.6,106.5z M162.9,90.2c0-2.2-1.2-3.7-3.3-3.7s-3.2,1.5-3.2,3.7v9.8c0,2.2,1.2,3.7,3.2,3.7
				s3.3-1.5,3.3-3.7V90.2z"/>
			<path class="st3" d="M175.6,106.5c-3.6,0-6.7-1.9-6.9-6.3h3.2c0.1,2.4,1.8,3.4,3.7,3.4c2.1,0,3.7-1.4,3.7-3.7
				c0-2.3-1.2-3.7-3.8-3.7h-0.5v-2.8h0.5c2.3,0,3.4-1.4,3.4-3.4c0-2.3-1.5-3.5-3.3-3.5c-2,0-3.2,1.2-3.4,3.2H169
				c0.2-3.8,3-6.1,6.6-6.1c3.8,0,6.5,2.6,6.5,6.3c0,2.4-1.1,3.9-2.8,4.8c1.9,0.9,3.2,2.5,3.2,5.3
				C182.4,104.3,179.3,106.5,175.6,106.5z"/>
			<path class="st3" d="M191.9,106.5c-3.6,0-6.5-2.4-6.5-6.4v-10c0-4,2.9-6.4,6.5-6.4s6.5,2.4,6.5,6.4v10
				C198.4,104,195.5,106.5,191.9,106.5z M195.2,90.2c0-2.2-1.2-3.7-3.3-3.7s-3.2,1.5-3.2,3.7v9.8c0,2.2,1.2,3.7,3.2,3.7
				s3.3-1.5,3.3-3.7V90.2z"/>
		</g>
	</g>
</g>
</svg>
